<?xml version="1.0" encoding="UTF-8"?><svg xmlns="http://www.w3.org/2000/svg" xmlns:xlink="http://www.w3.org/1999/xlink" fill-opacity="1" color-rendering="auto" color-interpolation="auto" stroke="black" text-rendering="auto" stroke-linecap="square" width="568" stroke-miterlimit="10" stroke-opacity="1" shape-rendering="auto" fill="black" stroke-dasharray="none" font-weight="normal" stroke-width="1" height="284" font-family="'Dialog'" font-style="normal" stroke-linejoin="miter" font-size="12" stroke-dashoffset="0" image-rendering="auto">
  <!--Generated by ySVG 2.5-->
  <defs id="genericDefs"/>
  <g>
    <defs id="defs1">
      <clipPath clipPathUnits="userSpaceOnUse" id="clipPath1">
        <path d="M0 0 L568 0 L568 284 L0 284 L0 0 Z"/>
      </clipPath>
      <clipPath clipPathUnits="userSpaceOnUse" id="clipPath2">
        <path d="M-267 92 L301 92 L301 376 L-267 376 L-267 92 Z"/>
      </clipPath>
      <clipPath clipPathUnits="userSpaceOnUse" id="clipPath3">
        <path d="M0 0 L0 20 L14 20 L14 0 Z"/>
      </clipPath>
      <clipPath clipPathUnits="userSpaceOnUse" id="clipPath4">
        <path d="M0 0 L0 20 L13 20 L13 0 Z"/>
      </clipPath>
      <clipPath clipPathUnits="userSpaceOnUse" id="clipPath5">
        <path d="M0 0 L0 20 L11 20 L11 0 Z"/>
      </clipPath>
      <clipPath clipPathUnits="userSpaceOnUse" id="clipPath6">
        <path d="M0 0 L0 20 L10 20 L10 0 Z"/>
      </clipPath>
      <clipPath clipPathUnits="userSpaceOnUse" id="clipPath7">
        <path d="M0 0 L0 20 L24 20 L24 0 Z"/>
      </clipPath>
      <clipPath clipPathUnits="userSpaceOnUse" id="clipPath8">
        <path d="M0 0 L0 20 L17 20 L17 0 Z"/>
      </clipPath>
      <clipPath clipPathUnits="userSpaceOnUse" id="clipPath9">
        <path d="M0 0 L0 20 L21 20 L21 0 Z"/>
      </clipPath>
      <clipPath clipPathUnits="userSpaceOnUse" id="clipPath10">
        <path d="M0 0 L0 20 L22 20 L22 0 Z"/>
      </clipPath>
      <clipPath clipPathUnits="userSpaceOnUse" id="clipPath11">
        <path d="M0 0 L0 20 L38 20 L38 0 Z"/>
      </clipPath>
      <clipPath clipPathUnits="userSpaceOnUse" id="clipPath12">
        <path d="M0 0 L0 20 L27 20 L27 0 Z"/>
      </clipPath>
      <clipPath clipPathUnits="userSpaceOnUse" id="clipPath13">
        <path d="M0 0 L0 20 L35 20 L35 0 Z"/>
      </clipPath>
      <clipPath clipPathUnits="userSpaceOnUse" id="clipPath14">
        <path d="M0 0 L0 20 L28 20 L28 0 Z"/>
      </clipPath>
    </defs>
    <g fill="white" text-rendering="geometricPrecision" shape-rendering="geometricPrecision" transform="translate(267,-92)" stroke="white">
      <rect x="-267" width="568" height="284" y="92" clip-path="url(#clipPath2)" stroke="none"/>
    </g>
    <g stroke-linecap="butt" transform="matrix(1,0,0,1,267,-92) translate(68,148)" fill="rgb(51,51,51)" text-rendering="geometricPrecision" font-family="sans-serif" shape-rendering="geometricPrecision" stroke="rgb(51,51,51)" stroke-miterlimit="1.45">
      <text x="0" xml:space="preserve" y="12" clip-path="url(#clipPath3)" stroke="none">e</text>
      <text x="8" xml:space="preserve" font-size="10" y="17" clip-path="url(#clipPath3)" stroke="none">a</text>
    </g>
    <g stroke-linecap="butt" transform="matrix(1,0,0,1,267,-92)" fill="rgb(51,51,51)" text-rendering="geometricPrecision" shape-rendering="geometricPrecision" stroke="rgb(51,51,51)" stroke-miterlimit="1.45">
      <circle fill="none" r="15" clip-path="url(#clipPath2)" cx="75.3167" cy="158.2786"/>
    </g>
    <g text-rendering="geometricPrecision" stroke-miterlimit="1.45" shape-rendering="geometricPrecision" font-family="sans-serif" transform="matrix(1,0,0,1,267,-92) translate(244,152)" stroke-linecap="butt">
      <text x="0" xml:space="preserve" y="12" clip-path="url(#clipPath4)" stroke="none">e</text>
      <text x="8" xml:space="preserve" font-size="10" y="17" clip-path="url(#clipPath4)" stroke="none">c</text>
    </g>
    <g text-rendering="geometricPrecision" stroke-miterlimit="1.45" shape-rendering="geometricPrecision" transform="matrix(1,0,0,1,267,-92)" stroke-linecap="butt">
      <circle fill="none" r="15" clip-path="url(#clipPath2)" cx="251.3759" cy="162.3667"/>
    </g>
    <g fill="rgb(204,153,255)" text-rendering="geometricPrecision" shape-rendering="geometricPrecision" transform="matrix(1,0,0,1,267,-92)" stroke="rgb(204,153,255)">
      <rect x="58.4559" y="288.9986" clip-path="url(#clipPath2)" width="30" rx="4" ry="4" height="30" stroke="none"/>
    </g>
    <g text-rendering="geometricPrecision" stroke-miterlimit="1.45" shape-rendering="geometricPrecision" font-family="sans-serif" transform="matrix(1,0,0,1,267,-92) translate(67,293)" stroke-linecap="butt">
      <text x="0" xml:space="preserve" y="12" clip-path="url(#clipPath5)" stroke="none">t</text>
      <text x="5" xml:space="preserve" font-size="10" y="17" clip-path="url(#clipPath5)" stroke="none">1</text>
    </g>
    <g text-rendering="geometricPrecision" stroke-miterlimit="1.45" shape-rendering="geometricPrecision" transform="matrix(1,0,0,1,267,-92)" stroke-linecap="butt">
      <rect x="58.4559" y="288.9986" clip-path="url(#clipPath2)" fill="none" width="30" rx="4" ry="4" height="30"/>
    </g>
    <g fill="rgb(204,153,255)" text-rendering="geometricPrecision" shape-rendering="geometricPrecision" transform="matrix(1,0,0,1,267,-92)" stroke="rgb(204,153,255)">
      <rect x="127.7988" y="288.9986" clip-path="url(#clipPath2)" width="30" rx="4" ry="4" height="30" stroke="none"/>
    </g>
    <g text-rendering="geometricPrecision" stroke-miterlimit="1.45" shape-rendering="geometricPrecision" font-family="sans-serif" transform="matrix(1,0,0,1,267,-92) translate(137,293)" stroke-linecap="butt">
      <text x="0" xml:space="preserve" y="12" clip-path="url(#clipPath6)" stroke="none">t</text>
      <text x="5" xml:space="preserve" font-size="10" y="17" clip-path="url(#clipPath6)" stroke="none">k</text>
    </g>
    <g text-rendering="geometricPrecision" stroke-miterlimit="1.45" shape-rendering="geometricPrecision" transform="matrix(1,0,0,1,267,-92)" stroke-linecap="butt">
      <rect x="127.7988" y="288.9986" clip-path="url(#clipPath2)" fill="none" width="30" rx="4" ry="4" height="30"/>
    </g>
    <g fill="rgb(204,153,255)" text-rendering="geometricPrecision" shape-rendering="geometricPrecision" transform="matrix(1,0,0,1,267,-92)" stroke="rgb(204,153,255)">
      <rect x="167.9855" y="288.9986" clip-path="url(#clipPath2)" width="30" rx="4" ry="4" height="30" stroke="none"/>
    </g>
    <g text-rendering="geometricPrecision" stroke-miterlimit="1.45" shape-rendering="geometricPrecision" font-family="sans-serif" transform="matrix(1,0,0,1,267,-92) translate(170,293)" stroke-linecap="butt">
      <text x="0" xml:space="preserve" y="12" clip-path="url(#clipPath7)" stroke="none">t</text>
      <text x="5" xml:space="preserve" font-size="10" y="17" clip-path="url(#clipPath7)" stroke="none">k+1</text>
    </g>
    <g text-rendering="geometricPrecision" stroke-miterlimit="1.45" shape-rendering="geometricPrecision" transform="matrix(1,0,0,1,267,-92)" stroke-linecap="butt">
      <rect x="167.9855" y="288.9986" clip-path="url(#clipPath2)" fill="none" width="30" rx="4" ry="4" height="30"/>
    </g>
    <g fill="rgb(204,153,255)" text-rendering="geometricPrecision" shape-rendering="geometricPrecision" transform="matrix(1,0,0,1,267,-92)" stroke="rgb(204,153,255)">
      <rect x="236.3759" y="288.9986" clip-path="url(#clipPath2)" width="30" rx="4" ry="4" height="30" stroke="none"/>
    </g>
    <g text-rendering="geometricPrecision" stroke-miterlimit="1.45" shape-rendering="geometricPrecision" font-family="sans-serif" transform="matrix(1,0,0,1,267,-92) translate(242,293)" stroke-linecap="butt">
      <text x="0" xml:space="preserve" y="12" clip-path="url(#clipPath8)" stroke="none">t</text>
      <text x="5" xml:space="preserve" font-size="10" y="17" clip-path="url(#clipPath8)" stroke="none">Ln</text>
    </g>
    <g text-rendering="geometricPrecision" stroke-miterlimit="1.45" shape-rendering="geometricPrecision" transform="matrix(1,0,0,1,267,-92)" stroke-linecap="butt">
      <rect x="236.3759" y="288.9986" clip-path="url(#clipPath2)" fill="none" width="30" rx="4" ry="4" height="30"/>
    </g>
    <g text-rendering="geometricPrecision" stroke-miterlimit="1.45" shape-rendering="geometricPrecision" font-family="sans-serif" transform="matrix(1,0,0,1,267,-92) translate(75,221)" stroke-linecap="butt">
      <text x="0" xml:space="preserve" y="12" clip-path="url(#clipPath9)" stroke="none">s</text>
      <text x="7" xml:space="preserve" font-size="10" y="17" clip-path="url(#clipPath9)" stroke="none">a,k</text>
    </g>
    <g text-rendering="geometricPrecision" stroke-miterlimit="1.45" shape-rendering="geometricPrecision" font-family="sans-serif" transform="matrix(1,0,0,1,267,-92) translate(49,185)" stroke-linecap="butt">
      <text x="0" xml:space="preserve" y="12" clip-path="url(#clipPath10)" stroke="none">s</text>
      <text x="7" xml:space="preserve" font-size="10" y="17" clip-path="url(#clipPath10)" stroke="none">a,1</text>
    </g>
    <g text-rendering="geometricPrecision" stroke-miterlimit="1.45" shape-rendering="geometricPrecision" font-family="sans-serif" transform="matrix(1,0,0,1,267,-92) translate(178,185)" stroke-linecap="butt">
      <text x="0" xml:space="preserve" y="12" clip-path="url(#clipPath11)" stroke="none">s</text>
      <text x="7" xml:space="preserve" font-size="10" y="17" clip-path="url(#clipPath11)" stroke="none">b',k+1</text>
    </g>
    <g text-rendering="geometricPrecision" stroke-miterlimit="1.45" shape-rendering="geometricPrecision" font-family="sans-serif" transform="matrix(1,0,0,1,267,-92) translate(256,233)" stroke-linecap="butt">
      <text x="0" xml:space="preserve" y="12" clip-path="url(#clipPath12)" stroke="none">s</text>
      <text x="7" xml:space="preserve" font-size="10" y="17" clip-path="url(#clipPath12)" stroke="none">c,Ln</text>
    </g>
    <g fill="red" text-rendering="geometricPrecision" shape-rendering="geometricPrecision" transform="matrix(1,0,0,1,267,-92)" stroke="red">
      <circle r="15" clip-path="url(#clipPath2)" cx="-221.7676" cy="160.0549" stroke="none"/>
    </g>
    <g stroke-linecap="butt" transform="matrix(1,0,0,1,267,-92) translate(-228,150)" fill="rgb(204,255,204)" text-rendering="geometricPrecision" font-family="sans-serif" shape-rendering="geometricPrecision" stroke="rgb(204,255,204)" stroke-miterlimit="1.45">
      <text x="0" xml:space="preserve" y="12" clip-path="url(#clipPath3)" stroke="none">e</text>
      <text x="8" xml:space="preserve" font-size="10" y="17" clip-path="url(#clipPath3)" stroke="none">a</text>
    </g>
    <g stroke-linecap="butt" transform="matrix(1,0,0,1,267,-92)" fill="red" text-rendering="geometricPrecision" shape-rendering="geometricPrecision" stroke="red" stroke-miterlimit="1.45">
      <circle fill="none" r="15" clip-path="url(#clipPath2)" cx="-221.7676" cy="160.0549"/>
    </g>
    <g fill="gray" text-rendering="geometricPrecision" shape-rendering="geometricPrecision" transform="matrix(1,0,0,1,267,-92)" stroke="gray">
      <circle r="15" clip-path="url(#clipPath2)" cx="-64.9084" cy="160.0549" stroke="none"/>
    </g>
    <g text-rendering="geometricPrecision" stroke-miterlimit="1.45" shape-rendering="geometricPrecision" font-family="sans-serif" transform="matrix(1,0,0,1,267,-92) translate(-71,150)" stroke-linecap="butt">
      <text x="0" xml:space="preserve" y="12" clip-path="url(#clipPath4)" stroke="none">e</text>
      <text x="8" xml:space="preserve" font-size="10" y="17" clip-path="url(#clipPath4)" stroke="none">c</text>
    </g>
    <g text-rendering="geometricPrecision" stroke-miterlimit="1.45" shape-rendering="geometricPrecision" transform="matrix(1,0,0,1,267,-92)" stroke-linecap="butt">
      <circle fill="none" r="15" clip-path="url(#clipPath2)" cx="-64.9084" cy="160.0549"/>
    </g>
    <g text-rendering="geometricPrecision" stroke-miterlimit="1.45" shape-rendering="geometricPrecision" font-family="sans-serif" transform="matrix(1,0,0,1,267,-92) translate(-229,295)" stroke-linecap="butt">
      <text x="0" xml:space="preserve" y="12" clip-path="url(#clipPath5)" stroke="none">t</text>
      <text x="5" xml:space="preserve" font-size="10" y="17" clip-path="url(#clipPath5)" stroke="none">1</text>
    </g>
    <g text-rendering="geometricPrecision" stroke-miterlimit="1.45" shape-rendering="geometricPrecision" transform="matrix(1,0,0,1,267,-92)" stroke-linecap="butt">
      <rect x="-238.6284" y="290.7749" clip-path="url(#clipPath2)" fill="none" width="30" rx="4" ry="4" height="30"/>
    </g>
    <g text-rendering="geometricPrecision" stroke-miterlimit="1.45" shape-rendering="geometricPrecision" font-family="sans-serif" transform="matrix(1,0,0,1,267,-92) translate(-159,295)" stroke-linecap="butt">
      <text x="0" xml:space="preserve" y="12" clip-path="url(#clipPath6)" stroke="none">t</text>
      <text x="5" xml:space="preserve" font-size="10" y="17" clip-path="url(#clipPath6)" stroke="none">k</text>
    </g>
    <g text-rendering="geometricPrecision" stroke-miterlimit="1.45" shape-rendering="geometricPrecision" transform="matrix(1,0,0,1,267,-92)" stroke-linecap="butt">
      <rect x="-169.2854" y="290.7749" clip-path="url(#clipPath2)" fill="none" width="30" rx="4" ry="4" height="30"/>
    </g>
    <g text-rendering="geometricPrecision" stroke-miterlimit="1.45" shape-rendering="geometricPrecision" font-family="sans-serif" transform="matrix(1,0,0,1,267,-92) translate(-126,295)" stroke-linecap="butt">
      <text x="0" xml:space="preserve" y="12" clip-path="url(#clipPath7)" stroke="none">t</text>
      <text x="5" xml:space="preserve" font-size="10" y="17" clip-path="url(#clipPath7)" stroke="none">k+1</text>
    </g>
    <g text-rendering="geometricPrecision" stroke-miterlimit="1.45" shape-rendering="geometricPrecision" transform="matrix(1,0,0,1,267,-92)" stroke-linecap="butt">
      <rect x="-129.0987" y="290.7749" clip-path="url(#clipPath2)" fill="none" width="30" rx="4" ry="4" height="30"/>
    </g>
    <g text-rendering="geometricPrecision" stroke-miterlimit="1.45" shape-rendering="geometricPrecision" font-family="sans-serif" transform="matrix(1,0,0,1,267,-92) translate(-54,295)" stroke-linecap="butt">
      <text x="0" xml:space="preserve" y="12" clip-path="url(#clipPath8)" stroke="none">t</text>
      <text x="5" xml:space="preserve" font-size="10" y="17" clip-path="url(#clipPath8)" stroke="none">Ln</text>
    </g>
    <g text-rendering="geometricPrecision" stroke-miterlimit="1.45" shape-rendering="geometricPrecision" transform="matrix(1,0,0,1,267,-92)" stroke-linecap="butt">
      <rect x="-60.7084" y="290.7749" clip-path="url(#clipPath2)" fill="none" width="30" rx="4" ry="4" height="30"/>
    </g>
    <g text-rendering="geometricPrecision" stroke-miterlimit="1.45" shape-rendering="geometricPrecision" font-family="sans-serif" transform="matrix(1,0,0,1,267,-92) translate(-183,228)" stroke-linecap="butt">
      <text x="0" xml:space="preserve" y="12" clip-path="url(#clipPath13)" stroke="none">s</text>
      <text x="7" xml:space="preserve" font-size="10" y="17" clip-path="url(#clipPath13)" stroke="none">a,k+1</text>
    </g>
    <g text-rendering="geometricPrecision" stroke-miterlimit="1.45" shape-rendering="geometricPrecision" font-family="sans-serif" transform="matrix(1,0,0,1,267,-92) translate(-217,228)" stroke-linecap="butt">
      <text x="0" xml:space="preserve" y="12" clip-path="url(#clipPath9)" stroke="none">s</text>
      <text x="7" xml:space="preserve" font-size="10" y="17" clip-path="url(#clipPath9)" stroke="none">a,k</text>
    </g>
    <g text-rendering="geometricPrecision" stroke-miterlimit="1.45" shape-rendering="geometricPrecision" font-family="sans-serif" transform="matrix(1,0,0,1,267,-92) translate(-247,198)" stroke-linecap="butt">
      <text x="0" xml:space="preserve" y="12" clip-path="url(#clipPath10)" stroke="none">s</text>
      <text x="7" xml:space="preserve" font-size="10" y="17" clip-path="url(#clipPath10)" stroke="none">a,1</text>
    </g>
    <g text-rendering="geometricPrecision" stroke-miterlimit="1.45" shape-rendering="geometricPrecision" font-family="sans-serif" transform="matrix(1,0,0,1,267,-92) translate(-168,189)" stroke-linecap="butt">
      <text x="0" xml:space="preserve" y="12" clip-path="url(#clipPath14)" stroke="none">s</text>
      <text x="7" xml:space="preserve" font-size="10" y="17" clip-path="url(#clipPath14)" stroke="none">a,Ln</text>
    </g>
    <g fill="gray" text-rendering="geometricPrecision" shape-rendering="geometricPrecision" transform="matrix(1,0,0,1,267,-92)" stroke="gray">
      <circle r="15" clip-path="url(#clipPath2)" cx="-172.4284" cy="160.0549" stroke="none"/>
    </g>
    <g text-rendering="geometricPrecision" stroke-miterlimit="1.45" shape-rendering="geometricPrecision" font-family="sans-serif" transform="matrix(1,0,0,1,267,-92) translate(-179,150)" stroke-linecap="butt">
      <text x="0" xml:space="preserve" y="12" clip-path="url(#clipPath3)" stroke="none">e</text>
      <text x="8" xml:space="preserve" font-size="10" y="17" clip-path="url(#clipPath3)" stroke="none">b</text>
    </g>
    <g text-rendering="geometricPrecision" stroke-miterlimit="1.45" shape-rendering="geometricPrecision" transform="matrix(1,0,0,1,267,-92)" stroke-linecap="butt">
      <circle fill="none" r="15" clip-path="url(#clipPath2)" cx="-172.4284" cy="160.0549"/>
    </g>
    <g fill="gray" text-rendering="geometricPrecision" shape-rendering="geometricPrecision" transform="matrix(1,0,0,1,267,-92)" stroke="gray">
      <circle r="15" clip-path="url(#clipPath2)" cx="-118.6684" cy="160.0549" stroke="none"/>
    </g>
    <g text-rendering="geometricPrecision" stroke-miterlimit="1.45" shape-rendering="geometricPrecision" font-family="sans-serif" transform="matrix(1,0,0,1,267,-92) translate(-127,150)" stroke-linecap="butt">
      <text x="0" xml:space="preserve" y="12" clip-path="url(#clipPath8)" stroke="none">e</text>
      <text x="8" xml:space="preserve" font-size="10" y="17" clip-path="url(#clipPath8)" stroke="none">b'</text>
    </g>
    <g text-rendering="geometricPrecision" stroke-miterlimit="1.45" shape-rendering="geometricPrecision" transform="matrix(1,0,0,1,267,-92)" stroke-linecap="butt">
      <circle fill="none" r="15" clip-path="url(#clipPath2)" cx="-118.6684" cy="160.0549"/>
    </g>
    <g text-rendering="geometricPrecision" stroke-miterlimit="1.45" shape-rendering="geometricPrecision" font-family="sans-serif" transform="matrix(1,0,0,1,267,-92) translate(116,150)" stroke-linecap="butt">
      <text x="0" xml:space="preserve" y="12" clip-path="url(#clipPath3)" stroke="none">e</text>
      <text x="8" xml:space="preserve" font-size="10" y="17" clip-path="url(#clipPath3)" stroke="none">b</text>
    </g>
    <g text-rendering="geometricPrecision" stroke-miterlimit="1.45" shape-rendering="geometricPrecision" transform="matrix(1,0,0,1,267,-92)" stroke-linecap="butt">
      <circle fill="none" r="15" clip-path="url(#clipPath2)" cx="123.5493" cy="160.0549"/>
    </g>
    <g text-rendering="geometricPrecision" stroke-miterlimit="1.45" shape-rendering="geometricPrecision" font-family="sans-serif" transform="matrix(1,0,0,1,267,-92) translate(163,152)" stroke-linecap="butt">
      <text x="0" xml:space="preserve" y="12" clip-path="url(#clipPath8)" stroke="none">e</text>
      <text x="8" xml:space="preserve" font-size="10" y="17" clip-path="url(#clipPath8)" stroke="none">b'</text>
    </g>
    <g text-rendering="geometricPrecision" stroke-miterlimit="1.45" shape-rendering="geometricPrecision" transform="matrix(1,0,0,1,267,-92)" stroke-linecap="butt">
      <circle fill="none" r="15" clip-path="url(#clipPath2)" cx="171.7819" cy="162.3667"/>
      <rect x="-246.6284" y="279.3986" clip-path="url(#clipPath2)" fill="none" width="224.0608" stroke-dasharray="12,4" height="49.2" stroke-width="2"/>
      <rect x="-241.1691" y="139.5023" clip-path="url(#clipPath2)" fill="none" width="201.6608" stroke-dasharray="12,4" height="44.5763" stroke-width="2"/>
      <text x="-243.1754" font-size="20" y="130.7045" clip-path="url(#clipPath2)" font-family="'Impact'" stroke="none" xml:space="preserve">Pathogen </text>
      <text x="-153.0159" font-size="20" y="351.5771" clip-path="url(#clipPath2)" font-family="'Impact'" stroke="none" xml:space="preserve">Host</text>
      <rect x="50.8618" y="281.1749" clip-path="url(#clipPath2)" fill="none" width="224.0608" stroke-dasharray="12,4" height="49.2" stroke-width="2"/>
      <rect x="50.8618" y="139.3177" clip-path="url(#clipPath2)" fill="none" width="224.0608" stroke-dasharray="12,4" height="49.2" stroke-width="2"/>
      <text x="47.3046" font-size="20" y="130.5486" clip-path="url(#clipPath2)" font-family="'Impact'" stroke="none" xml:space="preserve">Pathogen </text>
      <text x="144.4742" font-size="20" y="353.3534" clip-path="url(#clipPath2)" font-family="'Impact'" stroke="none" xml:space="preserve">Host</text>
    </g>
    <g text-rendering="geometricPrecision" stroke-miterlimit="1.45" shape-rendering="geometricPrecision" font-family="sans-serif" transform="matrix(1,0,0,1,267,-92) translate(213,253)" stroke-linecap="butt">
      <text x="0" xml:space="preserve" y="12" clip-path="url(#clipPath9)" stroke="none">s</text>
      <text x="7" xml:space="preserve" font-size="10" y="17" clip-path="url(#clipPath9)" stroke="none">c,a</text>
    </g>
    <g text-rendering="geometricPrecision" stroke-width="2" stroke-miterlimit="1.45" shape-rendering="geometricPrecision" transform="matrix(1,0,0,1,267,-92)" stroke-linecap="butt">
      <path fill="none" d="M75.0102 182.2766 L73.6478 288.9669" clip-path="url(#clipPath2)"/>
      <path d="M75.1251 173.2773 L69.3282 186.7044 L74.9958 183.4015 L80.5773 186.8481 Z" clip-path="url(#clipPath2)" stroke="none"/>
      <path fill="none" stroke-width="3" d="M85.8222 180.9641 L135.8535 289.0009" clip-path="url(#clipPath2)"/>
      <path stroke-width="3" d="M81.62 171.8899 L82.2519 188.1276 L86.3475 182.0984 L93.5947 182.8748 Z" clip-path="url(#clipPath2)" stroke="none"/>
      <path fill="none" stroke-dasharray="0,8" d="M88.4554 303.9986 L127.8066 303.9986" stroke-dashoffset="2" clip-path="url(#clipPath2)" stroke-linecap="round"/>
      <path fill="none" stroke-width="5" d="M239.6354 186.6805 L190.2206 289.0153" clip-path="url(#clipPath2)"/>
      <path stroke-width="5" d="M244.8534 175.8744 L230.2726 188.8223 L238.9831 188.0313 L243.7802 195.3448 Z" clip-path="url(#clipPath2)" stroke="none"/>
      <path fill="none" d="M89.5788 177.5812 L171.919 289.021" clip-path="url(#clipPath2)"/>
      <path d="M84.2305 170.3427 L87.729 184.5431 L90.2474 178.486 L96.7771 177.8577 Z" clip-path="url(#clipPath2)" stroke="none"/>
      <path fill="none" stroke-width="7" d="M251.3759 191.3667 L251.3759 288.9766" clip-path="url(#clipPath2)"/>
      <path stroke-width="7" d="M251.3759 177.3667 L242.6259 198.3667 L251.3759 193.1167 L260.1259 198.3667 Z" clip-path="url(#clipPath2)" stroke="none"/>
      <path fill="none" stroke-width="1" d="M93.0349 172.9436 L236.5762 291.7492" clip-path="url(#clipPath2)"/>
      <path stroke-width="1" d="M86.8721 167.8427 L92.9284 179.3458 L93.8053 173.5812 L99.3044 171.6422 Z" clip-path="url(#clipPath2)" stroke="none"/>
      <path fill="none" stroke-dasharray="0,8" d="M197.9793 303.9986 L236.3842 303.9986" stroke-dashoffset="2" clip-path="url(#clipPath2)" stroke-linecap="round"/>
      <path fill="none" d="M-221.9591 175.0536 L-223.3215 281.7439" clip-path="url(#clipPath2)" stroke="rgb(51,51,51)"/>
      <path fill="rgb(51,51,51)" d="M-223.4364 290.7432 L-217.6395 277.3161 L-223.3071 280.619 L-228.8886 277.1725 Z" clip-path="url(#clipPath2)" stroke="none"/>
      <path fill="none" stroke-width="3" d="M-215.4643 173.6662 L-165.433 281.703" clip-path="url(#clipPath2)" stroke="rgb(51,51,51)"/>
      <path fill="rgb(51,51,51)" stroke-width="3" d="M-161.2308 290.7772 L-161.8627 274.5395 L-165.9583 280.5687 L-173.2055 279.7923 Z" clip-path="url(#clipPath2)" stroke="none"/>
      <path fill="none" stroke-dasharray="0,8" d="M-208.6289 305.7749 L-169.2776 305.7749" stroke-dashoffset="2" clip-path="url(#clipPath2)" stroke-linecap="round"/>
      <path fill="none" d="M-212.8537 172.119 L-130.5136 283.5588" clip-path="url(#clipPath2)" stroke="rgb(51,51,51)"/>
      <path fill="rgb(51,51,51)" d="M-125.1653 290.7973 L-128.6637 276.5969 L-131.1822 282.654 L-137.7118 283.2823 Z" clip-path="url(#clipPath2)" stroke="none"/>
      <path fill="none" stroke-width="1" d="M-210.2122 169.619 L-66.671 288.4246" clip-path="url(#clipPath2)" stroke="rgb(51,51,51)"/>
      <path fill="rgb(51,51,51)" stroke-width="1" d="M-60.5081 293.5255 L-66.5644 282.0224 L-67.4413 287.787 L-72.9405 289.726 Z" clip-path="url(#clipPath2)" stroke="none"/>
      <path fill="none" stroke-dasharray="0,8" d="M-99.1049 305.7749 L-60.7001 305.7749" stroke-dashoffset="2" clip-path="url(#clipPath2)" stroke-linecap="round"/>
      <path fill="none" stroke-width="1" d="M78.678 288.9927 L115.9898 181.7771" clip-path="url(#clipPath2)"/>
      <path stroke-width="1" d="M118.6192 174.2215 L109.9529 183.9115 L115.6611 182.7215 L119.3973 187.1982 Z" clip-path="url(#clipPath2)" stroke="none"/>
      <path fill="none" stroke-width="1" d="M83.8502 289.0263 L158.6655 181.2601" clip-path="url(#clipPath2)"/>
      <path stroke-width="1" d="M163.2277 174.6885 L152.2771 181.6945 L158.0952 182.0815 L160.4916 187.3973 Z" clip-path="url(#clipPath2)" stroke="none"/>
      <path fill="none" stroke-width="1" d="M181.8011 289.0263 L173.5956 185.2951" clip-path="url(#clipPath2)"/>
      <path stroke-width="1" d="M172.9648 177.32 L168.9266 189.6769 L173.6745 186.292 L178.8955 188.8884 Z" clip-path="url(#clipPath2)" stroke="none"/>
    </g>
  </g>
</svg>
