<?xml version="1.0" encoding="UTF-8"?><svg xmlns="http://www.w3.org/2000/svg" xmlns:xlink="http://www.w3.org/1999/xlink" fill-opacity="1" color-rendering="auto" color-interpolation="auto" stroke="black" text-rendering="auto" stroke-linecap="square" width="311" stroke-miterlimit="10" stroke-opacity="1" shape-rendering="auto" fill="black" stroke-dasharray="none" font-weight="normal" stroke-width="1" height="934" font-family="'Dialog'" font-style="normal" stroke-linejoin="miter" font-size="12" stroke-dashoffset="0" image-rendering="auto">
  <!--Generated by ySVG 2.5-->
  <defs id="genericDefs"/>
  <g>
    <defs id="defs1">
      <clipPath clipPathUnits="userSpaceOnUse" id="clipPath1">
        <path d="M0 0 L311 0 L311 934 L0 934 L0 0 Z"/>
      </clipPath>
      <clipPath clipPathUnits="userSpaceOnUse" id="clipPath2">
        <path d="M-3298 -2660 L-2987 -2660 L-2987 -1726 L-3298 -1726 L-3298 -2660 Z"/>
      </clipPath>
    </defs>
    <g fill="red" text-rendering="geometricPrecision" shape-rendering="geometricPrecision" transform="matrix(1,0,0,1,3298,2660)" stroke="red">
      <rect x="-3202.0258" y="-2119.6875" clip-path="url(#clipPath2)" width="25.9109" rx="4" ry="4" height="29.6094" stroke="none"/>
    </g>
    <g stroke-linecap="butt" transform="matrix(1,0,0,1,3298,2660)" fill="red" text-rendering="geometricPrecision" shape-rendering="geometricPrecision" stroke="red" stroke-miterlimit="1.45">
      <rect x="-3202.0258" y="-2119.6875" clip-path="url(#clipPath2)" fill="none" width="25.9109" rx="4" ry="4" height="29.6094"/>
    </g>
    <g fill="green" text-rendering="geometricPrecision" shape-rendering="geometricPrecision" transform="matrix(1,0,0,1,3298,2660)" stroke="green">
      <rect x="-3202.0258" y="-2343.0938" clip-path="url(#clipPath2)" width="26.9789" rx="4" ry="4" height="29.6094" stroke="none"/>
      <rect stroke-linecap="butt" x="-3202.0258" y="-2343.0938" clip-path="url(#clipPath2)" fill="none" width="26.9789" rx="4" ry="4" height="29.6094" stroke-miterlimit="1.45"/>
      <rect x="-3203.0938" y="-2271.4062" clip-path="url(#clipPath2)" fill="rgb(255,204,0)" width="28.0469" rx="4" ry="4" height="29.6094" stroke="none"/>
    </g>
    <g stroke-linecap="butt" transform="matrix(1,0,0,1,3298,2660)" fill="rgb(255,204,0)" text-rendering="geometricPrecision" shape-rendering="geometricPrecision" stroke="rgb(255,204,0)" stroke-miterlimit="1.45">
      <rect x="-3203.0938" y="-2271.4062" clip-path="url(#clipPath2)" fill="none" width="28.0469" rx="4" ry="4" height="29.6094"/>
    </g>
    <g fill="gray" text-rendering="geometricPrecision" shape-rendering="geometricPrecision" transform="matrix(1,0,0,1,3298,2660)" stroke="gray">
      <rect x="-3112.5469" y="-2271.4062" clip-path="url(#clipPath2)" width="28.0469" rx="4" ry="4" height="29.6094" stroke="none"/>
      <rect stroke-linecap="butt" x="-3112.5469" y="-2271.4062" clip-path="url(#clipPath2)" fill="none" width="28.0469" rx="4" ry="4" height="29.6094" stroke-miterlimit="1.45"/>
      <rect x="-3202.0258" y="-2481.8438" clip-path="url(#clipPath2)" fill="red" width="25.9109" rx="4" ry="4" height="29.6094" stroke="none"/>
    </g>
    <g stroke-linecap="butt" transform="matrix(1,0,0,1,3298,2660)" fill="red" text-rendering="geometricPrecision" shape-rendering="geometricPrecision" stroke="red" stroke-miterlimit="1.45">
      <rect x="-3202.0258" y="-2481.8438" clip-path="url(#clipPath2)" fill="none" width="25.9109" rx="4" ry="4" height="29.6094"/>
    </g>
    <g fill="green" text-rendering="geometricPrecision" shape-rendering="geometricPrecision" transform="matrix(1,0,0,1,3298,2660)" stroke="green">
      <rect x="-3113.6149" y="-2119.6875" clip-path="url(#clipPath2)" width="25.9109" rx="4" ry="4" height="29.6094" stroke="none"/>
      <rect stroke-linecap="butt" x="-3113.6149" y="-2119.6875" clip-path="url(#clipPath2)" fill="none" width="25.9109" rx="4" ry="4" height="29.6094" stroke-miterlimit="1.45"/>
      <rect x="-3112.5469" y="-2202.0312" clip-path="url(#clipPath2)" fill="rgb(255,204,0)" width="28.0469" rx="4" ry="4" height="29.6094" stroke="none"/>
    </g>
    <g stroke-linecap="butt" transform="matrix(1,0,0,1,3298,2660)" fill="rgb(255,204,0)" text-rendering="geometricPrecision" shape-rendering="geometricPrecision" stroke="rgb(255,204,0)" stroke-miterlimit="1.45">
      <rect x="-3112.5469" y="-2202.0312" clip-path="url(#clipPath2)" fill="none" width="28.0469" rx="4" ry="4" height="29.6094"/>
    </g>
    <g fill="gray" text-rendering="geometricPrecision" shape-rendering="geometricPrecision" transform="matrix(1,0,0,1,3298,2660)" stroke="gray">
      <rect x="-3203.0938" y="-2202.0312" clip-path="url(#clipPath2)" width="28.0469" rx="4" ry="4" height="29.6094" stroke="none"/>
      <rect stroke-linecap="butt" x="-3203.0938" y="-2202.0312" clip-path="url(#clipPath2)" fill="none" width="28.0469" rx="4" ry="4" height="29.6094" stroke-miterlimit="1.45"/>
      <rect x="-3202.0258" y="-2412.4688" clip-path="url(#clipPath2)" fill="green" width="25.9109" rx="4" ry="4" height="29.6094" stroke="none"/>
    </g>
    <g stroke-linecap="butt" transform="matrix(1,0,0,1,3298,2660)" fill="green" text-rendering="geometricPrecision" shape-rendering="geometricPrecision" stroke="green" stroke-miterlimit="1.45">
      <rect x="-3202.0258" y="-2412.4688" clip-path="url(#clipPath2)" fill="none" width="25.9109" rx="4" ry="4" height="29.6094"/>
      <rect stroke-linecap="square" x="-3113.6149" y="-2481.8438" clip-path="url(#clipPath2)" width="25.9109" rx="4" ry="4" height="29.6094" stroke="none" stroke-miterlimit="10"/>
      <rect x="-3113.6149" y="-2481.8438" clip-path="url(#clipPath2)" fill="none" width="25.9109" rx="4" ry="4" height="29.6094"/>
    </g>
    <g fill="red" text-rendering="geometricPrecision" shape-rendering="geometricPrecision" transform="matrix(1,0,0,1,3298,2660)" stroke="red">
      <rect x="-3113.6149" y="-2412.4688" clip-path="url(#clipPath2)" width="25.9109" rx="4" ry="4" height="29.6094" stroke="none"/>
      <rect stroke-linecap="butt" x="-3113.6149" y="-2412.4688" clip-path="url(#clipPath2)" fill="none" width="25.9109" rx="4" ry="4" height="29.6094" stroke-miterlimit="1.45"/>
      <rect x="-3113.6149" y="-2343.0938" clip-path="url(#clipPath2)" width="25.9109" rx="4" ry="4" height="29.6094" stroke="none"/>
      <rect stroke-linecap="butt" x="-3113.6149" y="-2343.0938" clip-path="url(#clipPath2)" fill="none" width="25.9109" rx="4" ry="4" height="29.6094" stroke-miterlimit="1.45"/>
      <rect x="-3203.0938" y="-2037.3438" clip-path="url(#clipPath2)" fill="rgb(255,204,0)" width="28.0469" rx="4" ry="4" height="29.6094" stroke="none"/>
    </g>
    <g stroke-linecap="butt" transform="matrix(1,0,0,1,3298,2660)" fill="rgb(255,204,0)" text-rendering="geometricPrecision" shape-rendering="geometricPrecision" stroke="rgb(255,204,0)" stroke-miterlimit="1.45">
      <rect x="-3203.0938" y="-2037.3438" clip-path="url(#clipPath2)" fill="none" width="28.0469" rx="4" ry="4" height="29.6094"/>
    </g>
    <g fill="gray" text-rendering="geometricPrecision" shape-rendering="geometricPrecision" transform="matrix(1,0,0,1,3298,2660)" stroke="gray">
      <rect x="-3112.5469" y="-2037.3438" clip-path="url(#clipPath2)" width="28.0469" rx="4" ry="4" height="29.6094" stroke="none"/>
      <rect stroke-linecap="butt" x="-3112.5469" y="-2037.3438" clip-path="url(#clipPath2)" fill="none" width="28.0469" rx="4" ry="4" height="29.6094" stroke-miterlimit="1.45"/>
      <rect x="-3254.0234" y="-1977.7344" clip-path="url(#clipPath2)" width="28.0469" rx="4" ry="4" height="29.6094" stroke="none"/>
      <rect stroke-linecap="butt" x="-3254.0234" y="-1977.7344" clip-path="url(#clipPath2)" fill="none" width="28.0469" rx="4" ry="4" height="29.6094" stroke-miterlimit="1.45"/>
      <rect x="-3054.5" y="-1977.7344" clip-path="url(#clipPath2)" fill="rgb(255,204,0)" width="28.0469" rx="4" ry="4" height="29.6094" stroke="none"/>
    </g>
    <g stroke-linecap="butt" transform="matrix(1,0,0,1,3298,2660)" fill="rgb(255,204,0)" text-rendering="geometricPrecision" shape-rendering="geometricPrecision" stroke="rgb(255,204,0)" stroke-miterlimit="1.45">
      <rect x="-3054.5" y="-1977.7344" clip-path="url(#clipPath2)" fill="none" width="28.0469" rx="4" ry="4" height="29.6094"/>
    </g>
    <g fill="red" text-rendering="geometricPrecision" shape-rendering="geometricPrecision" transform="matrix(1,0,0,1,3298,2660)" stroke="red">
      <rect x="-3282.9555" y="-1904.8047" clip-path="url(#clipPath2)" width="25.9109" rx="4" ry="4" height="29.6094" stroke="none"/>
      <rect stroke-linecap="butt" x="-3282.9555" y="-1904.8047" clip-path="url(#clipPath2)" fill="none" width="25.9109" rx="4" ry="4" height="29.6094" stroke-miterlimit="1.45"/>
      <rect x="-3031.0234" y="-1904.8047" clip-path="url(#clipPath2)" fill="gray" width="28.0469" rx="4" ry="4" height="29.6094" stroke="none"/>
    </g>
    <g stroke-linecap="butt" transform="matrix(1,0,0,1,3298,2660)" fill="gray" text-rendering="geometricPrecision" shape-rendering="geometricPrecision" stroke="gray" stroke-miterlimit="1.45">
      <rect x="-3031.0234" y="-1904.8047" clip-path="url(#clipPath2)" fill="none" width="28.0469" rx="4" ry="4" height="29.6094"/>
      <rect stroke-linecap="square" x="-3062.0234" y="-1826.8047" clip-path="url(#clipPath2)" width="28.0469" rx="4" ry="4" height="29.6094" stroke="none" stroke-miterlimit="10"/>
      <rect x="-3062.0234" y="-1826.8047" clip-path="url(#clipPath2)" fill="none" width="28.0469" rx="4" ry="4" height="29.6094"/>
    </g>
    <g fill="rgb(255,204,0)" text-rendering="geometricPrecision" shape-rendering="geometricPrecision" transform="matrix(1,0,0,1,3298,2660)" stroke="rgb(255,204,0)">
      <rect x="-3254.0234" y="-1830.8047" clip-path="url(#clipPath2)" width="28.0469" rx="4" ry="4" height="29.6094" stroke="none"/>
      <rect stroke-linecap="butt" x="-3254.0234" y="-1830.8047" clip-path="url(#clipPath2)" fill="none" width="28.0469" rx="4" ry="4" height="29.6094" stroke-miterlimit="1.45"/>
      <rect x="-3193.4894" y="-1771.1953" clip-path="url(#clipPath2)" fill="green" width="26.9789" rx="4" ry="4" height="29.6094" stroke="none"/>
    </g>
    <g stroke-linecap="butt" transform="matrix(1,0,0,1,3298,2660)" fill="green" text-rendering="geometricPrecision" shape-rendering="geometricPrecision" stroke="green" stroke-miterlimit="1.45">
      <rect x="-3193.4894" y="-1771.1953" clip-path="url(#clipPath2)" fill="none" width="26.9789" rx="4" ry="4" height="29.6094"/>
    </g>
    <g fill="rgb(255,204,0)" text-rendering="geometricPrecision" shape-rendering="geometricPrecision" transform="matrix(1,0,0,1,3298,2660)" stroke="rgb(255,204,0)">
      <rect x="-3120.0703" y="-1771.1953" clip-path="url(#clipPath2)" width="28.0469" rx="4" ry="4" height="29.6094" stroke="none"/>
      <rect stroke-linecap="butt" x="-3120.0703" y="-1771.1953" clip-path="url(#clipPath2)" fill="none" width="28.0469" rx="4" ry="4" height="29.6094" stroke-miterlimit="1.45"/>
    </g>
    <g stroke-linecap="butt" transform="matrix(1,0,0,1,3298,2660)" fill="rgb(51,51,51)" text-rendering="geometricPrecision" shape-rendering="geometricPrecision" stroke="rgb(51,51,51)" stroke-width="6" stroke-miterlimit="1.45">
      <path fill="none" d="M-3188.6467 -2313.4824 L-3188.96 -2271.405" clip-path="url(#clipPath2)"/>
      <path fill="none" d="M-3175.0549 -2256.6016 L-3112.5369 -2256.6016" clip-path="url(#clipPath2)"/>
      <path fill="none" d="M-3176.0764 -2104.8828 L-3113.585 -2104.8828" clip-path="url(#clipPath2)"/>
      <path fill="none" d="M-3098.5234 -2241.7983 L-3098.5234 -2202.0154" clip-path="url(#clipPath2)"/>
      <path fill="none" d="M-3098.9082 -2172.3901 L-3100.2754 -2119.6831" clip-path="url(#clipPath2)"/>
      <path fill="none" d="M-3189.0703 -2241.7983 L-3189.0703 -2202.0154" clip-path="url(#clipPath2)"/>
      <path fill="none" d="M-3175.0549 -2187.2266 L-3112.5369 -2187.2266" clip-path="url(#clipPath2)"/>
      <path fill="none" d="M-3189.0703 -2172.3901 L-3189.0703 -2119.6831" clip-path="url(#clipPath2)"/>
      <path fill="none" d="M-3189.0703 -2452.2358 L-3189.0703 -2412.4529" clip-path="url(#clipPath2)"/>
      <path fill="none" d="M-3188.9563 -2382.8608 L-3188.6501 -2343.0779" clip-path="url(#clipPath2)"/>
      <path fill="none" d="M-3176.0764 -2467.0391 L-3113.585 -2467.0391" clip-path="url(#clipPath2)"/>
      <path fill="none" d="M-3176.0764 -2397.6641 L-3113.585 -2397.6641" clip-path="url(#clipPath2)"/>
      <path fill="none" d="M-3100.6594 -2452.2358 L-3100.6594 -2412.4529" clip-path="url(#clipPath2)"/>
      <path fill="none" d="M-3175.02 -2328.2891 L-3113.6216 -2328.2891" clip-path="url(#clipPath2)"/>
      <path fill="none" d="M-3100.6594 -2382.8608 L-3100.6594 -2343.0779" clip-path="url(#clipPath2)"/>
      <path fill="none" d="M-3100.2183 -2313.4824 L-3098.9646 -2271.405" clip-path="url(#clipPath2)"/>
      <path fill="none" d="M-3189.1699 -2090.0876 L-3189.5068 -2040 L-3189.4412 -2037.374" clip-path="url(#clipPath2)"/>
      <path fill="none" d="M-3175.0549 -2022.5391 L-3112.5369 -2022.5391" clip-path="url(#clipPath2)"/>
      <path fill="none" d="M-3100.2747 -2090.0464 L-3098.9072 -2037.3392" clip-path="url(#clipPath2)"/>
      <path fill="none" d="M-3201.1812 -2008.3644 L-3227.8501 -1977.1503" clip-path="url(#clipPath2)"/>
      <path fill="none" d="M-3085.4573 -2009.1211 L-3053.5447 -1976.3496" clip-path="url(#clipPath2)"/>
      <path fill="none" d="M-3246.0791 -1948.1515 L-3263.9146 -1904.7935" clip-path="url(#clipPath2)"/>
      <path fill="none" d="M-3035.7192 -1948.1515 L-3021.7622 -1904.7935" clip-path="url(#clipPath2)"/>
      <path fill="none" d="M-3022.8882 -1875.1846 L-3042.1267 -1826.7781" clip-path="url(#clipPath2)"/>
      <path fill="none" d="M-3264.0088 -1875.2217 L-3245.9905 -1830.7765" clip-path="url(#clipPath2)"/>
      <path fill="none" d="M-3226.7285 -1802.8149 L-3192.937 -1769.2434" clip-path="url(#clipPath2)"/>
      <path fill="none" d="M-3166.4941 -1756.2147 L-3150 -1756 L-3120.0828 -1756.2659" clip-path="url(#clipPath2)"/>
      <path fill="none" d="M-3092.5837 -1769.2883 L-3061.4316 -1799.1323" clip-path="url(#clipPath2)"/>
      <path fill="none" stroke-width="4" stroke-dasharray="24,8" d="M-3101.0208 -2481.8486 L-3103.3145 -2575.8801" clip-path="url(#clipPath2)"/>
      <path fill="none" stroke-width="4" stroke-dasharray="24,8" d="M-3100.5535 -2583.9546 L-3062.4153 -2636.6621" clip-path="url(#clipPath2)"/>
      <path fill="none" stroke-width="4" stroke-dasharray="24,8" d="M-3189.0703 -2481.8486 L-3189.0703 -2575.8799" clip-path="url(#clipPath2)"/>
      <path fill="none" stroke-width="4" stroke-dasharray="24,8" d="M-3191.0002 -2583.6401 L-3218.9502 -2636.3599" clip-path="url(#clipPath2)"/>
    </g>
  </g>
</svg>
