<?xml version="1.0" encoding="UTF-8"?><svg xmlns="http://www.w3.org/2000/svg" xmlns:xlink="http://www.w3.org/1999/xlink" fill-opacity="1" color-rendering="auto" color-interpolation="auto" stroke="black" text-rendering="auto" stroke-linecap="square" width="1833" stroke-miterlimit="10" stroke-opacity="1" shape-rendering="auto" fill="black" stroke-dasharray="none" font-weight="normal" stroke-width="1" height="1531" font-family="'Dialog'" font-style="normal" stroke-linejoin="miter" font-size="12" stroke-dashoffset="0" image-rendering="auto">
  <!--Generated by ySVG 2.5-->
  <defs id="genericDefs"/>
  <g>
    <defs id="defs1">
      <clipPath clipPathUnits="userSpaceOnUse" id="clipPath1">
        <path d="M0 0 L1833 0 L1833 1531 L0 1531 L0 0 Z"/>
      </clipPath>
      <clipPath clipPathUnits="userSpaceOnUse" id="clipPath2">
        <path d="M-3792 -2638 L-1959 -2638 L-1959 -1107 L-3792 -1107 L-3792 -2638 Z"/>
      </clipPath>
    </defs>
    <g fill="teal" text-rendering="geometricPrecision" shape-rendering="geometricPrecision" transform="matrix(1,0,0,1,3792,2638)" stroke="teal">
      <ellipse rx="59" ry="62.5" clip-path="url(#clipPath2)" cx="-2577.5203" cy="-2559.8644" stroke="none"/>
    </g>
    <g font-size="60" stroke-linecap="butt" transform="matrix(1,0,0,1,3792,2638)" text-rendering="geometricPrecision" font-family="sans-serif" shape-rendering="geometricPrecision" stroke-miterlimit="1.45">
      <text x="-2595.6111" xml:space="preserve" y="-2539.093" clip-path="url(#clipPath2)" stroke="none">P</text>
    </g>
    <g stroke-linecap="butt" transform="matrix(1,0,0,1,3792,2638)" fill="teal" text-rendering="geometricPrecision" shape-rendering="geometricPrecision" stroke="teal" stroke-miterlimit="1.45">
      <ellipse rx="59" fill="none" ry="62.5" clip-path="url(#clipPath2)" cx="-2577.5203" cy="-2559.8644"/>
    </g>
    <g fill="red" text-rendering="geometricPrecision" shape-rendering="geometricPrecision" transform="matrix(1,0,0,1,3792,2638)" stroke="red">
      <rect x="-2220.9187" y="-2443.7707" clip-path="url(#clipPath2)" width="246.7969" rx="4" ry="4" height="162.8125" stroke="none"/>
      <rect stroke-linecap="butt" x="-2220.9187" y="-2443.7707" clip-path="url(#clipPath2)" fill="none" width="246.7969" rx="4" ry="4" height="162.8125" stroke-miterlimit="1.45"/>
      <ellipse clip-path="url(#clipPath2)" fill="blue" rx="10.6" cx="-2501.28" ry="11" cy="-2362.3644" stroke="none"/>
    </g>
    <g stroke-linecap="butt" transform="matrix(1,0,0,1,3792,2638)" fill="blue" text-rendering="geometricPrecision" shape-rendering="geometricPrecision" stroke="blue" stroke-miterlimit="1.45">
      <ellipse rx="10.6" fill="none" ry="11" clip-path="url(#clipPath2)" cx="-2501.28" cy="-2362.3644"/>
      <ellipse stroke-linecap="square" clip-path="url(#clipPath2)" rx="10.6" cx="-2367.5203" ry="11" cy="-2362.3644" stroke="none" stroke-miterlimit="10"/>
      <ellipse rx="10.6" fill="none" ry="11" clip-path="url(#clipPath2)" cx="-2367.5203" cy="-2362.3644"/>
      <ellipse stroke-linecap="square" clip-path="url(#clipPath2)" rx="10.6" cx="-2434.4001" ry="11" cy="-2422.3644" stroke="none" stroke-miterlimit="10"/>
      <ellipse rx="10.6" fill="none" ry="11" clip-path="url(#clipPath2)" cx="-2434.4001" cy="-2422.3644"/>
      <ellipse stroke-linecap="square" clip-path="url(#clipPath2)" rx="10.6" cx="-2480.4" ry="11" cy="-2281" stroke="none" stroke-miterlimit="10"/>
      <ellipse rx="10.6" fill="none" ry="11" clip-path="url(#clipPath2)" cx="-2480.4" cy="-2281"/>
      <ellipse stroke-linecap="square" clip-path="url(#clipPath2)" rx="10.6" cx="-2390.4" ry="11" cy="-2281" stroke="none" stroke-miterlimit="10"/>
      <ellipse rx="10.6" fill="none" ry="11" clip-path="url(#clipPath2)" cx="-2390.4" cy="-2281"/>
    </g>
    <g fill="teal" text-rendering="geometricPrecision" shape-rendering="geometricPrecision" transform="matrix(1,0,0,1,3792,2638)" stroke="teal">
      <ellipse rx="59" ry="62.5" clip-path="url(#clipPath2)" cx="-2580" cy="-2177.5" stroke="none"/>
    </g>
    <g font-size="60" stroke-linecap="butt" transform="matrix(1,0,0,1,3792,2638)" text-rendering="geometricPrecision" font-family="sans-serif" shape-rendering="geometricPrecision" stroke-miterlimit="1.45">
      <text x="-2598.0908" xml:space="preserve" y="-2156.7285" clip-path="url(#clipPath2)" stroke="none">P</text>
    </g>
    <g stroke-linecap="butt" transform="matrix(1,0,0,1,3792,2638)" fill="teal" text-rendering="geometricPrecision" shape-rendering="geometricPrecision" stroke="teal" stroke-miterlimit="1.45">
      <ellipse rx="59" fill="none" ry="62.5" clip-path="url(#clipPath2)" cx="-2580" cy="-2177.5"/>
    </g>
    <g fill="green" text-rendering="geometricPrecision" shape-rendering="geometricPrecision" transform="matrix(1,0,0,1,3792,2638)" stroke="green">
      <rect x="-2223.3984" y="-2061.4062" clip-path="url(#clipPath2)" width="246.7969" rx="4" ry="4" height="162.8125" stroke="none"/>
      <rect stroke-linecap="butt" x="-2223.3984" y="-2061.4062" clip-path="url(#clipPath2)" fill="none" width="246.7969" rx="4" ry="4" height="162.8125" stroke-miterlimit="1.45"/>
      <ellipse clip-path="url(#clipPath2)" fill="blue" rx="10.6" cx="-2503.7597" ry="11" cy="-1980" stroke="none"/>
    </g>
    <g stroke-linecap="butt" transform="matrix(1,0,0,1,3792,2638)" fill="blue" text-rendering="geometricPrecision" shape-rendering="geometricPrecision" stroke="blue" stroke-miterlimit="1.45">
      <ellipse rx="10.6" fill="none" ry="11" clip-path="url(#clipPath2)" cx="-2503.7597" cy="-1980"/>
      <ellipse stroke-linecap="square" clip-path="url(#clipPath2)" rx="10.6" cx="-2370" ry="11" cy="-1980" stroke="none" stroke-miterlimit="10"/>
      <ellipse rx="10.6" fill="none" ry="11" clip-path="url(#clipPath2)" cx="-2370" cy="-1980"/>
      <ellipse stroke-linecap="square" clip-path="url(#clipPath2)" rx="10.6" cx="-2436.8799" ry="11" cy="-2040" stroke="none" stroke-miterlimit="10"/>
      <ellipse rx="10.6" fill="none" ry="11" clip-path="url(#clipPath2)" cx="-2436.8799" cy="-2040"/>
      <ellipse stroke-linecap="square" clip-path="url(#clipPath2)" rx="10.6" cx="-2482.8797" ry="11" cy="-1898.6356" stroke="none" stroke-miterlimit="10"/>
      <ellipse rx="10.6" fill="none" ry="11" clip-path="url(#clipPath2)" cx="-2482.8797" cy="-1898.6356"/>
      <ellipse stroke-linecap="square" clip-path="url(#clipPath2)" rx="10.6" cx="-2392.8797" ry="11" cy="-1898.6356" stroke="none" stroke-miterlimit="10"/>
      <ellipse rx="10.6" fill="none" ry="11" clip-path="url(#clipPath2)" cx="-2392.8797" cy="-1898.6356"/>
    </g>
    <g fill="teal" text-rendering="geometricPrecision" shape-rendering="geometricPrecision" transform="matrix(1,0,0,1,3792,2638)" stroke="teal">
      <ellipse rx="59" ry="62.5" clip-path="url(#clipPath2)" cx="-2577.5203" cy="-1795.1356" stroke="none"/>
    </g>
    <g font-size="60" stroke-linecap="butt" transform="matrix(1,0,0,1,3792,2638)" text-rendering="geometricPrecision" font-family="sans-serif" shape-rendering="geometricPrecision" stroke-miterlimit="1.45">
      <text x="-2595.6111" xml:space="preserve" y="-1774.3641" clip-path="url(#clipPath2)" stroke="none">P</text>
    </g>
    <g stroke-linecap="butt" transform="matrix(1,0,0,1,3792,2638)" fill="teal" text-rendering="geometricPrecision" shape-rendering="geometricPrecision" stroke="teal" stroke-miterlimit="1.45">
      <ellipse rx="59" fill="none" ry="62.5" clip-path="url(#clipPath2)" cx="-2577.5203" cy="-1795.1356"/>
    </g>
    <g fill="rgb(255,204,0)" text-rendering="geometricPrecision" shape-rendering="geometricPrecision" transform="matrix(1,0,0,1,3792,2638)" stroke="rgb(255,204,0)">
      <rect x="-2220.9187" y="-1679.0418" clip-path="url(#clipPath2)" width="246.7969" rx="4" ry="4" height="162.8125" stroke="none"/>
      <rect stroke-linecap="butt" x="-2220.9187" y="-1679.0418" clip-path="url(#clipPath2)" fill="none" width="246.7969" rx="4" ry="4" height="162.8125" stroke-miterlimit="1.45"/>
      <ellipse clip-path="url(#clipPath2)" fill="blue" rx="10.6" cx="-2501.28" ry="11" cy="-1597.6356" stroke="none"/>
    </g>
    <g stroke-linecap="butt" transform="matrix(1,0,0,1,3792,2638)" fill="blue" text-rendering="geometricPrecision" shape-rendering="geometricPrecision" stroke="blue" stroke-miterlimit="1.45">
      <ellipse rx="10.6" fill="none" ry="11" clip-path="url(#clipPath2)" cx="-2501.28" cy="-1597.6356"/>
      <ellipse stroke-linecap="square" clip-path="url(#clipPath2)" rx="10.6" cx="-2367.5203" ry="11" cy="-1597.6356" stroke="none" stroke-miterlimit="10"/>
      <ellipse rx="10.6" fill="none" ry="11" clip-path="url(#clipPath2)" cx="-2367.5203" cy="-1597.6356"/>
      <ellipse stroke-linecap="square" clip-path="url(#clipPath2)" rx="10.6" cx="-2434.4001" ry="11" cy="-1657.6356" stroke="none" stroke-miterlimit="10"/>
      <ellipse rx="10.6" fill="none" ry="11" clip-path="url(#clipPath2)" cx="-2434.4001" cy="-1657.6356"/>
      <ellipse stroke-linecap="square" clip-path="url(#clipPath2)" rx="10.6" cx="-2480.4" ry="11" cy="-1516.2712" stroke="none" stroke-miterlimit="10"/>
      <ellipse rx="10.6" fill="none" ry="11" clip-path="url(#clipPath2)" cx="-2480.4" cy="-1516.2712"/>
      <ellipse stroke-linecap="square" clip-path="url(#clipPath2)" rx="10.6" cx="-2390.4" ry="11" cy="-1516.2712" stroke="none" stroke-miterlimit="10"/>
      <ellipse rx="10.6" fill="none" ry="11" clip-path="url(#clipPath2)" cx="-2390.4" cy="-1516.2712"/>
    </g>
    <g fill="teal" text-rendering="geometricPrecision" shape-rendering="geometricPrecision" transform="matrix(1,0,0,1,3792,2638)" stroke="teal">
      <ellipse rx="59" ry="62.5" clip-path="url(#clipPath2)" cx="-2580" cy="-1412.7712" stroke="none"/>
    </g>
    <g font-size="60" stroke-linecap="butt" transform="matrix(1,0,0,1,3792,2638)" text-rendering="geometricPrecision" font-family="sans-serif" shape-rendering="geometricPrecision" stroke-miterlimit="1.45">
      <text x="-2598.0908" xml:space="preserve" y="-1391.9996" clip-path="url(#clipPath2)" stroke="none">P</text>
    </g>
    <g stroke-linecap="butt" transform="matrix(1,0,0,1,3792,2638)" fill="teal" text-rendering="geometricPrecision" shape-rendering="geometricPrecision" stroke="teal" stroke-miterlimit="1.45">
      <ellipse rx="59" fill="none" ry="62.5" clip-path="url(#clipPath2)" cx="-2580" cy="-1412.7712"/>
    </g>
    <g fill="gray" text-rendering="geometricPrecision" shape-rendering="geometricPrecision" transform="matrix(1,0,0,1,3792,2638)" stroke="gray">
      <rect x="-2223.3984" y="-1296.6774" clip-path="url(#clipPath2)" width="246.7969" rx="4" ry="4" height="162.8125" stroke="none"/>
      <rect stroke-linecap="butt" x="-2223.3984" y="-1296.6774" clip-path="url(#clipPath2)" fill="none" width="246.7969" rx="4" ry="4" height="162.8125" stroke-miterlimit="1.45"/>
      <ellipse clip-path="url(#clipPath2)" fill="blue" rx="10.6" cx="-2503.7597" ry="11" cy="-1215.2712" stroke="none"/>
    </g>
    <g stroke-linecap="butt" transform="matrix(1,0,0,1,3792,2638)" fill="blue" text-rendering="geometricPrecision" shape-rendering="geometricPrecision" stroke="blue" stroke-miterlimit="1.45">
      <ellipse rx="10.6" fill="none" ry="11" clip-path="url(#clipPath2)" cx="-2503.7597" cy="-1215.2712"/>
      <ellipse stroke-linecap="square" clip-path="url(#clipPath2)" rx="10.6" cx="-2370" ry="11" cy="-1215.2712" stroke="none" stroke-miterlimit="10"/>
      <ellipse rx="10.6" fill="none" ry="11" clip-path="url(#clipPath2)" cx="-2370" cy="-1215.2712"/>
      <ellipse stroke-linecap="square" clip-path="url(#clipPath2)" rx="10.6" cx="-2436.8799" ry="11" cy="-1275.2712" stroke="none" stroke-miterlimit="10"/>
      <ellipse rx="10.6" fill="none" ry="11" clip-path="url(#clipPath2)" cx="-2436.8799" cy="-1275.2712"/>
      <ellipse stroke-linecap="square" clip-path="url(#clipPath2)" rx="10.6" cx="-2482.8797" ry="11" cy="-1133.9068" stroke="none" stroke-miterlimit="10"/>
      <ellipse rx="10.6" fill="none" ry="11" clip-path="url(#clipPath2)" cx="-2482.8797" cy="-1133.9068"/>
      <ellipse stroke-linecap="square" clip-path="url(#clipPath2)" rx="10.6" cx="-2392.8797" ry="11" cy="-1133.9068" stroke="none" stroke-miterlimit="10"/>
      <ellipse rx="10.6" fill="none" ry="11" clip-path="url(#clipPath2)" cx="-2392.8797" cy="-1133.9068"/>
    </g>
    <g fill="teal" text-rendering="geometricPrecision" shape-rendering="geometricPrecision" transform="matrix(1,0,0,1,3792,2638)" stroke="teal">
      <ellipse rx="59" ry="62.5" clip-path="url(#clipPath2)" cx="-3717.5203" cy="-2036.1356" stroke="none"/>
    </g>
    <g font-size="60" stroke-linecap="butt" transform="matrix(1,0,0,1,3792,2638)" text-rendering="geometricPrecision" font-family="sans-serif" shape-rendering="geometricPrecision" stroke-miterlimit="1.45">
      <text x="-3735.6111" xml:space="preserve" y="-2015.3641" clip-path="url(#clipPath2)" stroke="none">P</text>
    </g>
    <g stroke-linecap="butt" transform="matrix(1,0,0,1,3792,2638)" fill="teal" text-rendering="geometricPrecision" shape-rendering="geometricPrecision" stroke="teal" stroke-miterlimit="1.45">
      <ellipse rx="59" fill="none" ry="62.5" clip-path="url(#clipPath2)" cx="-3717.5203" cy="-2036.1356"/>
    </g>
    <g stroke-linecap="butt" transform="matrix(1,0,0,1,3792,2638)" text-rendering="geometricPrecision" shape-rendering="geometricPrecision" stroke-dasharray="30,10" stroke-width="5" stroke-miterlimit="1.45">
      <rect x="-3360.9187" y="-1920.0418" clip-path="url(#clipPath2)" fill="none" width="246.7969" rx="4" ry="4" height="162.8125"/>
    </g>
    <g fill="blue" text-rendering="geometricPrecision" shape-rendering="geometricPrecision" transform="matrix(1,0,0,1,3792,2638)" stroke="blue">
      <ellipse rx="10.6" ry="11" clip-path="url(#clipPath2)" cx="-3641.28" cy="-1838.6356" stroke="none"/>
      <ellipse stroke-linecap="butt" clip-path="url(#clipPath2)" fill="none" rx="10.6" cx="-3641.28" ry="11" cy="-1838.6356" stroke-miterlimit="1.45"/>
      <ellipse rx="10.6" ry="11" clip-path="url(#clipPath2)" cx="-3507.5203" cy="-1838.6356" stroke="none"/>
      <ellipse stroke-linecap="butt" clip-path="url(#clipPath2)" fill="none" rx="10.6" cx="-3507.5203" ry="11" cy="-1838.6356" stroke-miterlimit="1.45"/>
      <ellipse rx="10.6" ry="11" clip-path="url(#clipPath2)" cx="-3574.4001" cy="-1898.6356" stroke="none"/>
      <ellipse stroke-linecap="butt" clip-path="url(#clipPath2)" fill="none" rx="10.6" cx="-3574.4001" ry="11" cy="-1898.6356" stroke-miterlimit="1.45"/>
      <ellipse rx="10.6" ry="11" clip-path="url(#clipPath2)" cx="-3620.4" cy="-1757.2712" stroke="none"/>
      <ellipse stroke-linecap="butt" clip-path="url(#clipPath2)" fill="none" rx="10.6" cx="-3620.4" ry="11" cy="-1757.2712" stroke-miterlimit="1.45"/>
      <ellipse rx="10.6" ry="11" clip-path="url(#clipPath2)" cx="-3530.4" cy="-1757.2712" stroke="none"/>
      <ellipse stroke-linecap="butt" clip-path="url(#clipPath2)" fill="none" rx="10.6" cx="-3530.4" ry="11" cy="-1757.2712" stroke-miterlimit="1.45"/>
    </g>
    <g stroke-linecap="butt" transform="matrix(1,0,0,1,3792,2638)" fill="teal" text-rendering="geometricPrecision" shape-rendering="geometricPrecision" stroke="teal" stroke-width="7" stroke-miterlimit="1.45">
      <path fill="none" d="M-2505.2217 -2372.5757 L-2555.1887 -2502.0144" clip-path="url(#clipPath2)"/>
      <path fill="none" d="M-2356.9204 -2362.3645 L-2220.9189 -2362.3645" clip-path="url(#clipPath2)" stroke="red"/>
      <path fill="none" d="M-2493.2612 -2369.5583 L-2442.4189 -2415.1704" clip-path="url(#clipPath2)" stroke="blue"/>
      <path fill="none" d="M-2426.3813 -2415.1704 L-2375.5391 -2369.5583" clip-path="url(#clipPath2)" stroke="blue"/>
      <path fill="none" d="M-2483.1277 -2291.6296 L-2498.5522 -2351.7349" clip-path="url(#clipPath2)" stroke="blue"/>
      <path fill="none" d="M-2370.4897 -2351.8049 L-2387.4307 -2291.5596" clip-path="url(#clipPath2)" stroke="blue"/>
      <path fill="none" d="M-2401 -2281 L-2469.8 -2281" clip-path="url(#clipPath2)" stroke="blue"/>
      <path fill="none" d="M-2507.7014 -1990.2112 L-2557.6685 -2119.6499" clip-path="url(#clipPath2)"/>
      <path fill="none" d="M-2359.3999 -1980 L-2223.3987 -1980" clip-path="url(#clipPath2)" stroke="green"/>
      <path fill="none" d="M-2495.741 -1987.194 L-2444.8987 -2032.806" clip-path="url(#clipPath2)" stroke="blue"/>
      <path fill="none" d="M-2428.8611 -2032.806 L-2378.0188 -1987.194" clip-path="url(#clipPath2)" stroke="blue"/>
      <path fill="none" d="M-2485.6074 -1909.2651 L-2501.032 -1969.3705" clip-path="url(#clipPath2)" stroke="blue"/>
      <path fill="none" d="M-2372.9695 -1969.4404 L-2389.9104 -1909.1952" clip-path="url(#clipPath2)" stroke="blue"/>
      <path fill="none" d="M-2403.4797 -1898.6356 L-2472.2798 -1898.6356" clip-path="url(#clipPath2)" stroke="blue"/>
      <path fill="none" d="M-2505.2217 -1607.8467 L-2555.1887 -1737.2855" clip-path="url(#clipPath2)"/>
      <path fill="none" d="M-2356.9204 -1597.6356 L-2220.9189 -1597.6356" clip-path="url(#clipPath2)" stroke="rgb(255,204,0)"/>
      <path fill="none" d="M-2493.2612 -1604.8296 L-2442.4189 -1650.4417" clip-path="url(#clipPath2)" stroke="blue"/>
      <path fill="none" d="M-2426.3813 -1650.4417 L-2375.5391 -1604.8296" clip-path="url(#clipPath2)" stroke="blue"/>
      <path fill="none" d="M-2483.1277 -1526.9008 L-2498.5522 -1587.0061" clip-path="url(#clipPath2)" stroke="blue"/>
      <path fill="none" d="M-2370.4897 -1587.076 L-2387.4307 -1526.8308" clip-path="url(#clipPath2)" stroke="blue"/>
      <path fill="none" d="M-2401 -1516.2711 L-2469.8 -1516.2711" clip-path="url(#clipPath2)" stroke="blue"/>
      <path fill="none" d="M-2507.7014 -1225.4823 L-2557.6685 -1354.9211" clip-path="url(#clipPath2)"/>
      <path fill="none" d="M-2359.3999 -1215.2711 L-2223.3987 -1215.2711" clip-path="url(#clipPath2)" stroke="gray"/>
      <path fill="none" d="M-2495.741 -1222.4651 L-2444.8987 -1268.0771" clip-path="url(#clipPath2)" stroke="blue"/>
      <path fill="none" d="M-2428.8611 -1268.0771 L-2378.0188 -1222.4651" clip-path="url(#clipPath2)" stroke="blue"/>
      <path fill="none" d="M-2485.6074 -1144.5363 L-2501.032 -1204.6416" clip-path="url(#clipPath2)" stroke="blue"/>
      <path fill="none" d="M-2372.9695 -1204.7115 L-2389.9104 -1144.4663" clip-path="url(#clipPath2)" stroke="blue"/>
      <path fill="none" d="M-2403.4797 -1133.9067 L-2472.2798 -1133.9067" clip-path="url(#clipPath2)" stroke="blue"/>
      <path fill="none" d="M-3645.2217 -1848.8467 L-3695.1887 -1978.2855" clip-path="url(#clipPath2)"/>
    </g>
    <g stroke-linecap="butt" transform="matrix(1,0,0,1,3792,2638)" text-rendering="geometricPrecision" shape-rendering="geometricPrecision" stroke-dasharray="30,10" stroke-width="5" stroke-miterlimit="1.45">
      <path fill="none" d="M-3496.9204 -1838.6356 L-3360.9189 -1838.6356" clip-path="url(#clipPath2)"/>
    </g>
    <g stroke-linecap="butt" transform="matrix(1,0,0,1,3792,2638)" fill="blue" text-rendering="geometricPrecision" shape-rendering="geometricPrecision" stroke="blue" stroke-width="7" stroke-miterlimit="1.45">
      <path fill="none" d="M-3633.2612 -1845.8296 L-3582.4189 -1891.4417" clip-path="url(#clipPath2)"/>
      <path fill="none" d="M-3566.3813 -1891.4417 L-3515.5391 -1845.8296" clip-path="url(#clipPath2)"/>
      <path fill="none" d="M-3623.1277 -1767.9008 L-3638.5522 -1828.0061" clip-path="url(#clipPath2)"/>
      <path fill="none" d="M-3510.4897 -1828.076 L-3527.4307 -1767.8308" clip-path="url(#clipPath2)"/>
      <path fill="none" d="M-3541 -1757.2711 L-3609.8 -1757.2711" clip-path="url(#clipPath2)"/>
    </g>
  </g>
</svg>
