<?xml version="1.0" encoding="UTF-8"?><svg xmlns="http://www.w3.org/2000/svg" xmlns:xlink="http://www.w3.org/1999/xlink" fill-opacity="1" color-rendering="auto" color-interpolation="auto" stroke="black" text-rendering="auto" stroke-linecap="square" width="1643" stroke-miterlimit="10" stroke-opacity="1" shape-rendering="auto" fill="black" stroke-dasharray="none" font-weight="normal" stroke-width="1" height="1614" font-family="'Dialog'" font-style="normal" stroke-linejoin="miter" font-size="12" stroke-dashoffset="0" image-rendering="auto">
  <!--Generated by ySVG 2.5-->
  <defs id="genericDefs"/>
  <g>
    <defs id="defs1">
      <clipPath clipPathUnits="userSpaceOnUse" id="clipPath1">
        <path d="M0 0 L1643 0 L1643 1614 L0 1614 L0 0 Z"/>
      </clipPath>
      <clipPath clipPathUnits="userSpaceOnUse" id="clipPath2">
        <path d="M-3917 -2667 L-2274 -2667 L-2274 -1053 L-3917 -1053 L-3917 -2667 Z"/>
      </clipPath>
    </defs>
    <g fill="teal" text-rendering="geometricPrecision" shape-rendering="geometricPrecision" transform="matrix(1,0,0,1,3917,2667)" stroke="teal">
      <ellipse rx="59" ry="62.5" clip-path="url(#clipPath2)" cx="-3840.2046" cy="-2588.7588" stroke="none"/>
    </g>
    <g font-size="60" stroke-linecap="butt" transform="matrix(1,0,0,1,3917,2667)" text-rendering="geometricPrecision" font-family="sans-serif" shape-rendering="geometricPrecision" stroke-miterlimit="1.45">
      <text x="-3858.2954" xml:space="preserve" y="-2567.9873" clip-path="url(#clipPath2)" stroke="none">P</text>
    </g>
    <g stroke-linecap="butt" transform="matrix(1,0,0,1,3917,2667)" fill="teal" text-rendering="geometricPrecision" shape-rendering="geometricPrecision" stroke="teal" stroke-miterlimit="1.45">
      <ellipse rx="59" fill="none" ry="62.5" clip-path="url(#clipPath2)" cx="-3840.2046" cy="-2588.7588"/>
    </g>
    <g fill="red" text-rendering="geometricPrecision" shape-rendering="geometricPrecision" transform="matrix(1,0,0,1,3917,2667)" stroke="red">
      <rect x="-3483.603" y="-2472.665" clip-path="url(#clipPath2)" width="246.7969" rx="4" ry="4" height="162.8125" stroke="none"/>
      <rect stroke-linecap="butt" x="-3483.603" y="-2472.665" clip-path="url(#clipPath2)" fill="none" width="246.7969" rx="4" ry="4" height="162.8125" stroke-miterlimit="1.45"/>
      <ellipse clip-path="url(#clipPath2)" fill="blue" rx="10.6" cx="-3763.9643" ry="11" cy="-2391.2588" stroke="none"/>
    </g>
    <g stroke-linecap="butt" transform="matrix(1,0,0,1,3917,2667)" fill="blue" text-rendering="geometricPrecision" shape-rendering="geometricPrecision" stroke="blue" stroke-miterlimit="1.45">
      <ellipse rx="10.6" fill="none" ry="11" clip-path="url(#clipPath2)" cx="-3763.9643" cy="-2391.2588"/>
      <ellipse stroke-linecap="square" clip-path="url(#clipPath2)" rx="10.6" cx="-3630.2046" ry="11" cy="-2391.2588" stroke="none" stroke-miterlimit="10"/>
      <ellipse rx="10.6" fill="none" ry="11" clip-path="url(#clipPath2)" cx="-3630.2046" cy="-2391.2588"/>
      <ellipse stroke-linecap="square" clip-path="url(#clipPath2)" rx="10.6" cx="-3697.0844" ry="11" cy="-2451.2588" stroke="none" stroke-miterlimit="10"/>
      <ellipse rx="10.6" fill="none" ry="11" clip-path="url(#clipPath2)" cx="-3697.0844" cy="-2451.2588"/>
      <ellipse stroke-linecap="square" clip-path="url(#clipPath2)" rx="10.6" cx="-3743.0843" ry="11" cy="-2309.8944" stroke="none" stroke-miterlimit="10"/>
      <ellipse rx="10.6" fill="none" ry="11" clip-path="url(#clipPath2)" cx="-3743.0843" cy="-2309.8944"/>
      <ellipse stroke-linecap="square" clip-path="url(#clipPath2)" rx="10.6" cx="-3653.0843" ry="11" cy="-2309.8944" stroke="none" stroke-miterlimit="10"/>
      <ellipse rx="10.6" fill="none" ry="11" clip-path="url(#clipPath2)" cx="-3653.0843" cy="-2309.8944"/>
    </g>
    <g fill="teal" text-rendering="geometricPrecision" shape-rendering="geometricPrecision" transform="matrix(1,0,0,1,3917,2667)" stroke="teal">
      <ellipse rx="59" ry="62.5" clip-path="url(#clipPath2)" cx="-3842.6843" cy="-2206.3944" stroke="none"/>
    </g>
    <g font-size="60" stroke-linecap="butt" transform="matrix(1,0,0,1,3917,2667)" text-rendering="geometricPrecision" font-family="sans-serif" shape-rendering="geometricPrecision" stroke-miterlimit="1.45">
      <text x="-3860.7751" xml:space="preserve" y="-2185.6228" clip-path="url(#clipPath2)" stroke="none">P</text>
    </g>
    <g stroke-linecap="butt" transform="matrix(1,0,0,1,3917,2667)" fill="teal" text-rendering="geometricPrecision" shape-rendering="geometricPrecision" stroke="teal" stroke-miterlimit="1.45">
      <ellipse rx="59" fill="none" ry="62.5" clip-path="url(#clipPath2)" cx="-3842.6843" cy="-2206.3944"/>
    </g>
    <g fill="green" text-rendering="geometricPrecision" shape-rendering="geometricPrecision" transform="matrix(1,0,0,1,3917,2667)" stroke="green">
      <rect x="-3486.0827" y="-2090.3006" clip-path="url(#clipPath2)" width="246.7969" rx="4" ry="4" height="162.8125" stroke="none"/>
      <rect stroke-linecap="butt" x="-3486.0827" y="-2090.3006" clip-path="url(#clipPath2)" fill="none" width="246.7969" rx="4" ry="4" height="162.8125" stroke-miterlimit="1.45"/>
      <ellipse clip-path="url(#clipPath2)" fill="blue" rx="10.6" cx="-3766.444" ry="11" cy="-2008.8944" stroke="none"/>
    </g>
    <g stroke-linecap="butt" transform="matrix(1,0,0,1,3917,2667)" fill="blue" text-rendering="geometricPrecision" shape-rendering="geometricPrecision" stroke="blue" stroke-miterlimit="1.45">
      <ellipse rx="10.6" fill="none" ry="11" clip-path="url(#clipPath2)" cx="-3766.444" cy="-2008.8944"/>
      <ellipse stroke-linecap="square" clip-path="url(#clipPath2)" rx="10.6" cx="-3632.6843" ry="11" cy="-2008.8944" stroke="none" stroke-miterlimit="10"/>
      <ellipse rx="10.6" fill="none" ry="11" clip-path="url(#clipPath2)" cx="-3632.6843" cy="-2008.8944"/>
      <ellipse stroke-linecap="square" clip-path="url(#clipPath2)" rx="10.6" cx="-3699.5641" ry="11" cy="-2068.8944" stroke="none" stroke-miterlimit="10"/>
      <ellipse rx="10.6" fill="none" ry="11" clip-path="url(#clipPath2)" cx="-3699.5641" cy="-2068.8944"/>
      <ellipse stroke-linecap="square" clip-path="url(#clipPath2)" rx="10.6" cx="-3745.564" ry="11" cy="-1927.53" stroke="none" stroke-miterlimit="10"/>
      <ellipse rx="10.6" fill="none" ry="11" clip-path="url(#clipPath2)" cx="-3745.564" cy="-1927.53"/>
      <ellipse stroke-linecap="square" clip-path="url(#clipPath2)" rx="10.6" cx="-3655.564" ry="11" cy="-1927.53" stroke="none" stroke-miterlimit="10"/>
      <ellipse rx="10.6" fill="none" ry="11" clip-path="url(#clipPath2)" cx="-3655.564" cy="-1927.53"/>
    </g>
    <g fill="teal" text-rendering="geometricPrecision" shape-rendering="geometricPrecision" transform="matrix(1,0,0,1,3917,2667)" stroke="teal">
      <ellipse rx="59" ry="62.5" clip-path="url(#clipPath2)" cx="-3840.2046" cy="-1824.03" stroke="none"/>
    </g>
    <g font-size="60" stroke-linecap="butt" transform="matrix(1,0,0,1,3917,2667)" text-rendering="geometricPrecision" font-family="sans-serif" shape-rendering="geometricPrecision" stroke-miterlimit="1.45">
      <text x="-3858.2954" xml:space="preserve" y="-1803.2584" clip-path="url(#clipPath2)" stroke="none">P</text>
    </g>
    <g stroke-linecap="butt" transform="matrix(1,0,0,1,3917,2667)" fill="teal" text-rendering="geometricPrecision" shape-rendering="geometricPrecision" stroke="teal" stroke-miterlimit="1.45">
      <ellipse rx="59" fill="none" ry="62.5" clip-path="url(#clipPath2)" cx="-3840.2046" cy="-1824.03"/>
    </g>
    <g fill="rgb(255,204,0)" text-rendering="geometricPrecision" shape-rendering="geometricPrecision" transform="matrix(1,0,0,1,3917,2667)" stroke="rgb(255,204,0)">
      <rect x="-3483.603" y="-1707.9362" clip-path="url(#clipPath2)" width="246.7969" rx="4" ry="4" height="162.8125" stroke="none"/>
      <rect stroke-linecap="butt" x="-3483.603" y="-1707.9362" clip-path="url(#clipPath2)" fill="none" width="246.7969" rx="4" ry="4" height="162.8125" stroke-miterlimit="1.45"/>
      <ellipse clip-path="url(#clipPath2)" fill="blue" rx="10.6" cx="-3763.9643" ry="11" cy="-1626.53" stroke="none"/>
    </g>
    <g stroke-linecap="butt" transform="matrix(1,0,0,1,3917,2667)" fill="blue" text-rendering="geometricPrecision" shape-rendering="geometricPrecision" stroke="blue" stroke-miterlimit="1.45">
      <ellipse rx="10.6" fill="none" ry="11" clip-path="url(#clipPath2)" cx="-3763.9643" cy="-1626.53"/>
      <ellipse stroke-linecap="square" clip-path="url(#clipPath2)" rx="10.6" cx="-3630.2046" ry="11" cy="-1626.53" stroke="none" stroke-miterlimit="10"/>
      <ellipse rx="10.6" fill="none" ry="11" clip-path="url(#clipPath2)" cx="-3630.2046" cy="-1626.53"/>
      <ellipse stroke-linecap="square" clip-path="url(#clipPath2)" rx="10.6" cx="-3697.0844" ry="11" cy="-1686.53" stroke="none" stroke-miterlimit="10"/>
      <ellipse rx="10.6" fill="none" ry="11" clip-path="url(#clipPath2)" cx="-3697.0844" cy="-1686.53"/>
      <ellipse stroke-linecap="square" clip-path="url(#clipPath2)" rx="10.6" cx="-3743.0843" ry="11" cy="-1545.1655" stroke="none" stroke-miterlimit="10"/>
      <ellipse rx="10.6" fill="none" ry="11" clip-path="url(#clipPath2)" cx="-3743.0843" cy="-1545.1655"/>
      <ellipse stroke-linecap="square" clip-path="url(#clipPath2)" rx="10.6" cx="-3653.0843" ry="11" cy="-1545.1655" stroke="none" stroke-miterlimit="10"/>
      <ellipse rx="10.6" fill="none" ry="11" clip-path="url(#clipPath2)" cx="-3653.0843" cy="-1545.1655"/>
    </g>
    <g fill="teal" text-rendering="geometricPrecision" shape-rendering="geometricPrecision" transform="matrix(1,0,0,1,3917,2667)" stroke="teal">
      <ellipse rx="59" ry="62.5" clip-path="url(#clipPath2)" cx="-3842.6843" cy="-1441.6655" stroke="none"/>
    </g>
    <g font-size="60" stroke-linecap="butt" transform="matrix(1,0,0,1,3917,2667)" text-rendering="geometricPrecision" font-family="sans-serif" shape-rendering="geometricPrecision" stroke-miterlimit="1.45">
      <text x="-3860.7751" xml:space="preserve" y="-1420.894" clip-path="url(#clipPath2)" stroke="none">P</text>
    </g>
    <g stroke-linecap="butt" transform="matrix(1,0,0,1,3917,2667)" fill="teal" text-rendering="geometricPrecision" shape-rendering="geometricPrecision" stroke="teal" stroke-miterlimit="1.45">
      <ellipse rx="59" fill="none" ry="62.5" clip-path="url(#clipPath2)" cx="-3842.6843" cy="-1441.6655"/>
    </g>
    <g fill="gray" text-rendering="geometricPrecision" shape-rendering="geometricPrecision" transform="matrix(1,0,0,1,3917,2667)" stroke="gray">
      <rect x="-3486.0827" y="-1325.5718" clip-path="url(#clipPath2)" width="246.7969" rx="4" ry="4" height="162.8125" stroke="none"/>
      <rect stroke-linecap="butt" x="-3486.0827" y="-1325.5718" clip-path="url(#clipPath2)" fill="none" width="246.7969" rx="4" ry="4" height="162.8125" stroke-miterlimit="1.45"/>
      <ellipse clip-path="url(#clipPath2)" fill="blue" rx="10.6" cx="-3766.444" ry="11" cy="-1244.1655" stroke="none"/>
    </g>
    <g stroke-linecap="butt" transform="matrix(1,0,0,1,3917,2667)" fill="blue" text-rendering="geometricPrecision" shape-rendering="geometricPrecision" stroke="blue" stroke-miterlimit="1.45">
      <ellipse rx="10.6" fill="none" ry="11" clip-path="url(#clipPath2)" cx="-3766.444" cy="-1244.1655"/>
      <ellipse stroke-linecap="square" clip-path="url(#clipPath2)" rx="10.6" cx="-3632.6843" ry="11" cy="-1244.1655" stroke="none" stroke-miterlimit="10"/>
      <ellipse rx="10.6" fill="none" ry="11" clip-path="url(#clipPath2)" cx="-3632.6843" cy="-1244.1655"/>
      <ellipse stroke-linecap="square" clip-path="url(#clipPath2)" rx="10.6" cx="-3699.5641" ry="11" cy="-1304.1655" stroke="none" stroke-miterlimit="10"/>
      <ellipse rx="10.6" fill="none" ry="11" clip-path="url(#clipPath2)" cx="-3699.5641" cy="-1304.1655"/>
      <ellipse stroke-linecap="square" clip-path="url(#clipPath2)" rx="10.6" cx="-3745.564" ry="11" cy="-1162.8011" stroke="none" stroke-miterlimit="10"/>
      <ellipse rx="10.6" fill="none" ry="11" clip-path="url(#clipPath2)" cx="-3745.564" cy="-1162.8011"/>
      <ellipse stroke-linecap="square" clip-path="url(#clipPath2)" rx="10.6" cx="-3655.564" ry="11" cy="-1162.8011" stroke="none" stroke-miterlimit="10"/>
      <ellipse rx="10.6" fill="none" ry="11" clip-path="url(#clipPath2)" cx="-3655.564" cy="-1162.8011"/>
    </g>
    <g fill="red" text-rendering="geometricPrecision" shape-rendering="geometricPrecision" transform="matrix(1,0,0,1,3917,2667)" stroke="red">
      <rect x="-2782.6168" y="-2566.8987" clip-path="url(#clipPath2)" width="246.7969" rx="4" ry="4" height="162.8125" stroke="none"/>
    </g>
    <g font-size="80" stroke-linecap="butt" transform="matrix(1,0,0,1,3917,2667)" text-rendering="geometricPrecision" font-family="sans-serif" shape-rendering="geometricPrecision" stroke-miterlimit="1.45">
      <text x="-2726.4058" xml:space="preserve" y="-2457.7971" clip-path="url(#clipPath2)" stroke="none">T/U</text>
    </g>
    <g stroke-linecap="butt" transform="matrix(1,0,0,1,3917,2667)" fill="red" text-rendering="geometricPrecision" shape-rendering="geometricPrecision" stroke="red" stroke-miterlimit="1.45">
      <rect x="-2782.6168" y="-2566.8987" clip-path="url(#clipPath2)" fill="none" width="246.7969" rx="4" ry="4" height="162.8125"/>
    </g>
    <g fill="green" text-rendering="geometricPrecision" shape-rendering="geometricPrecision" transform="matrix(1,0,0,1,3917,2667)" stroke="green">
      <rect x="-2535.8199" y="-2566.8987" clip-path="url(#clipPath2)" width="246.7969" rx="4" ry="4" height="162.8125" stroke="none"/>
    </g>
    <g font-size="80" stroke-linecap="butt" transform="matrix(1,0,0,1,3917,2667)" text-rendering="geometricPrecision" font-family="sans-serif" shape-rendering="geometricPrecision" stroke-miterlimit="1.45">
      <text x="-2439.7847" xml:space="preserve" y="-2457.7971" clip-path="url(#clipPath2)" stroke="none">A</text>
    </g>
    <g stroke-linecap="butt" transform="matrix(1,0,0,1,3917,2667)" fill="green" text-rendering="geometricPrecision" shape-rendering="geometricPrecision" stroke="green" stroke-miterlimit="1.45">
      <rect x="-2535.8199" y="-2566.8987" clip-path="url(#clipPath2)" fill="none" width="246.7969" rx="4" ry="4" height="162.8125"/>
    </g>
    <g fill="rgb(255,204,0)" text-rendering="geometricPrecision" shape-rendering="geometricPrecision" transform="matrix(1,0,0,1,3917,2667)" stroke="rgb(255,204,0)">
      <rect x="-2782.6168" y="-2271.2699" clip-path="url(#clipPath2)" width="246.7969" rx="4" ry="4" height="162.8125" stroke="none"/>
    </g>
    <g font-size="80" stroke-linecap="butt" transform="matrix(1,0,0,1,3917,2667)" text-rendering="geometricPrecision" font-family="sans-serif" shape-rendering="geometricPrecision" stroke-miterlimit="1.45">
      <text x="-2690.2144" xml:space="preserve" y="-2162.1682" clip-path="url(#clipPath2)" stroke="none">G</text>
    </g>
    <g stroke-linecap="butt" transform="matrix(1,0,0,1,3917,2667)" fill="rgb(255,204,0)" text-rendering="geometricPrecision" shape-rendering="geometricPrecision" stroke="rgb(255,204,0)" stroke-miterlimit="1.45">
      <rect x="-2782.6168" y="-2271.2699" clip-path="url(#clipPath2)" fill="none" width="246.7969" rx="4" ry="4" height="162.8125"/>
    </g>
    <g fill="gray" text-rendering="geometricPrecision" shape-rendering="geometricPrecision" transform="matrix(1,0,0,1,3917,2667)" stroke="gray">
      <rect x="-2535.8199" y="-2271.2699" clip-path="url(#clipPath2)" width="246.7969" rx="4" ry="4" height="162.8125" stroke="none"/>
    </g>
    <g font-size="80" stroke-linecap="butt" transform="matrix(1,0,0,1,3917,2667)" text-rendering="geometricPrecision" font-family="sans-serif" shape-rendering="geometricPrecision" stroke-miterlimit="1.45">
      <text x="-2440.3511" xml:space="preserve" y="-2162.1682" clip-path="url(#clipPath2)" stroke="none">C</text>
    </g>
    <g stroke-linecap="butt" transform="matrix(1,0,0,1,3917,2667)" fill="gray" text-rendering="geometricPrecision" shape-rendering="geometricPrecision" stroke="gray" stroke-miterlimit="1.45">
      <rect x="-2535.8199" y="-2271.2699" clip-path="url(#clipPath2)" fill="none" width="246.7969" rx="4" ry="4" height="162.8125"/>
    </g>
    <g fill="red" text-rendering="geometricPrecision" shape-rendering="geometricPrecision" transform="matrix(1,0,0,1,3917,2667)" stroke="red">
      <rect x="-2573.9707" y="-1446.3056" clip-path="url(#clipPath2)" width="25.9109" rx="4" ry="4" height="29.6094" stroke="none"/>
      <rect stroke-linecap="butt" x="-2573.9707" y="-1446.3056" clip-path="url(#clipPath2)" fill="none" width="25.9109" rx="4" ry="4" height="29.6094" stroke-miterlimit="1.45"/>
      <rect x="-2573.9707" y="-1669.7119" clip-path="url(#clipPath2)" fill="green" width="26.9789" rx="4" ry="4" height="29.6094" stroke="none"/>
    </g>
    <g stroke-linecap="butt" transform="matrix(1,0,0,1,3917,2667)" fill="green" text-rendering="geometricPrecision" shape-rendering="geometricPrecision" stroke="green" stroke-miterlimit="1.45">
      <rect x="-2573.9707" y="-1669.7119" clip-path="url(#clipPath2)" fill="none" width="26.9789" rx="4" ry="4" height="29.6094"/>
    </g>
    <g fill="rgb(255,204,0)" text-rendering="geometricPrecision" shape-rendering="geometricPrecision" transform="matrix(1,0,0,1,3917,2667)" stroke="rgb(255,204,0)">
      <rect x="-2575.0387" y="-1598.0244" clip-path="url(#clipPath2)" width="28.0469" rx="4" ry="4" height="29.6094" stroke="none"/>
      <rect stroke-linecap="butt" x="-2575.0387" y="-1598.0244" clip-path="url(#clipPath2)" fill="none" width="28.0469" rx="4" ry="4" height="29.6094" stroke-miterlimit="1.45"/>
      <rect x="-2484.4918" y="-1598.0244" clip-path="url(#clipPath2)" fill="gray" width="28.0469" rx="4" ry="4" height="29.6094" stroke="none"/>
    </g>
    <g stroke-linecap="butt" transform="matrix(1,0,0,1,3917,2667)" fill="gray" text-rendering="geometricPrecision" shape-rendering="geometricPrecision" stroke="gray" stroke-miterlimit="1.45">
      <rect x="-2484.4918" y="-1598.0244" clip-path="url(#clipPath2)" fill="none" width="28.0469" rx="4" ry="4" height="29.6094"/>
    </g>
    <g fill="red" text-rendering="geometricPrecision" shape-rendering="geometricPrecision" transform="matrix(1,0,0,1,3917,2667)" stroke="red">
      <rect x="-2573.9707" y="-1808.4619" clip-path="url(#clipPath2)" width="25.9109" rx="4" ry="4" height="29.6094" stroke="none"/>
      <rect stroke-linecap="butt" x="-2573.9707" y="-1808.4619" clip-path="url(#clipPath2)" fill="none" width="25.9109" rx="4" ry="4" height="29.6094" stroke-miterlimit="1.45"/>
      <rect x="-2485.5598" y="-1446.3056" clip-path="url(#clipPath2)" fill="green" width="25.9109" rx="4" ry="4" height="29.6094" stroke="none"/>
    </g>
    <g stroke-linecap="butt" transform="matrix(1,0,0,1,3917,2667)" fill="green" text-rendering="geometricPrecision" shape-rendering="geometricPrecision" stroke="green" stroke-miterlimit="1.45">
      <rect x="-2485.5598" y="-1446.3056" clip-path="url(#clipPath2)" fill="none" width="25.9109" rx="4" ry="4" height="29.6094"/>
    </g>
    <g fill="rgb(255,204,0)" text-rendering="geometricPrecision" shape-rendering="geometricPrecision" transform="matrix(1,0,0,1,3917,2667)" stroke="rgb(255,204,0)">
      <rect x="-2484.4918" y="-1528.6494" clip-path="url(#clipPath2)" width="28.0469" rx="4" ry="4" height="29.6094" stroke="none"/>
      <rect stroke-linecap="butt" x="-2484.4918" y="-1528.6494" clip-path="url(#clipPath2)" fill="none" width="28.0469" rx="4" ry="4" height="29.6094" stroke-miterlimit="1.45"/>
      <rect x="-2575.0387" y="-1528.6494" clip-path="url(#clipPath2)" fill="gray" width="28.0469" rx="4" ry="4" height="29.6094" stroke="none"/>
    </g>
    <g stroke-linecap="butt" transform="matrix(1,0,0,1,3917,2667)" fill="gray" text-rendering="geometricPrecision" shape-rendering="geometricPrecision" stroke="gray" stroke-miterlimit="1.45">
      <rect x="-2575.0387" y="-1528.6494" clip-path="url(#clipPath2)" fill="none" width="28.0469" rx="4" ry="4" height="29.6094"/>
    </g>
    <g fill="green" text-rendering="geometricPrecision" shape-rendering="geometricPrecision" transform="matrix(1,0,0,1,3917,2667)" stroke="green">
      <rect x="-2573.9707" y="-1739.0869" clip-path="url(#clipPath2)" width="25.9109" rx="4" ry="4" height="29.6094" stroke="none"/>
      <rect stroke-linecap="butt" x="-2573.9707" y="-1739.0869" clip-path="url(#clipPath2)" fill="none" width="25.9109" rx="4" ry="4" height="29.6094" stroke-miterlimit="1.45"/>
      <rect x="-2485.5598" y="-1808.4619" clip-path="url(#clipPath2)" width="25.9109" rx="4" ry="4" height="29.6094" stroke="none"/>
      <rect stroke-linecap="butt" x="-2485.5598" y="-1808.4619" clip-path="url(#clipPath2)" fill="none" width="25.9109" rx="4" ry="4" height="29.6094" stroke-miterlimit="1.45"/>
      <rect x="-2485.5598" y="-1739.0869" clip-path="url(#clipPath2)" fill="red" width="25.9109" rx="4" ry="4" height="29.6094" stroke="none"/>
    </g>
    <g stroke-linecap="butt" transform="matrix(1,0,0,1,3917,2667)" fill="red" text-rendering="geometricPrecision" shape-rendering="geometricPrecision" stroke="red" stroke-miterlimit="1.45">
      <rect x="-2485.5598" y="-1739.0869" clip-path="url(#clipPath2)" fill="none" width="25.9109" rx="4" ry="4" height="29.6094"/>
      <rect stroke-linecap="square" x="-2485.5598" y="-1669.7119" clip-path="url(#clipPath2)" width="25.9109" rx="4" ry="4" height="29.6094" stroke="none" stroke-miterlimit="10"/>
      <rect x="-2485.5598" y="-1669.7119" clip-path="url(#clipPath2)" fill="none" width="25.9109" rx="4" ry="4" height="29.6094"/>
    </g>
    <g fill="rgb(255,204,0)" text-rendering="geometricPrecision" shape-rendering="geometricPrecision" transform="matrix(1,0,0,1,3917,2667)" stroke="rgb(255,204,0)">
      <rect x="-2575.0387" y="-1363.9619" clip-path="url(#clipPath2)" width="28.0469" rx="4" ry="4" height="29.6094" stroke="none"/>
      <rect stroke-linecap="butt" x="-2575.0387" y="-1363.9619" clip-path="url(#clipPath2)" fill="none" width="28.0469" rx="4" ry="4" height="29.6094" stroke-miterlimit="1.45"/>
      <rect x="-2484.4918" y="-1363.9619" clip-path="url(#clipPath2)" fill="gray" width="28.0469" rx="4" ry="4" height="29.6094" stroke="none"/>
    </g>
    <g stroke-linecap="butt" transform="matrix(1,0,0,1,3917,2667)" fill="gray" text-rendering="geometricPrecision" shape-rendering="geometricPrecision" stroke="gray" stroke-miterlimit="1.45">
      <rect x="-2484.4918" y="-1363.9619" clip-path="url(#clipPath2)" fill="none" width="28.0469" rx="4" ry="4" height="29.6094"/>
      <rect stroke-linecap="square" x="-2625.9684" y="-1304.3525" clip-path="url(#clipPath2)" width="28.0469" rx="4" ry="4" height="29.6094" stroke="none" stroke-miterlimit="10"/>
      <rect x="-2625.9684" y="-1304.3525" clip-path="url(#clipPath2)" fill="none" width="28.0469" rx="4" ry="4" height="29.6094"/>
    </g>
    <g fill="rgb(255,204,0)" text-rendering="geometricPrecision" shape-rendering="geometricPrecision" transform="matrix(1,0,0,1,3917,2667)" stroke="rgb(255,204,0)">
      <rect x="-2426.4449" y="-1304.3525" clip-path="url(#clipPath2)" width="28.0469" rx="4" ry="4" height="29.6094" stroke="none"/>
      <rect stroke-linecap="butt" x="-2426.4449" y="-1304.3525" clip-path="url(#clipPath2)" fill="none" width="28.0469" rx="4" ry="4" height="29.6094" stroke-miterlimit="1.45"/>
      <rect x="-2654.9004" y="-1231.4228" clip-path="url(#clipPath2)" fill="red" width="25.9109" rx="4" ry="4" height="29.6094" stroke="none"/>
    </g>
    <g stroke-linecap="butt" transform="matrix(1,0,0,1,3917,2667)" fill="red" text-rendering="geometricPrecision" shape-rendering="geometricPrecision" stroke="red" stroke-miterlimit="1.45">
      <rect x="-2654.9004" y="-1231.4228" clip-path="url(#clipPath2)" fill="none" width="25.9109" rx="4" ry="4" height="29.6094"/>
    </g>
    <g fill="gray" text-rendering="geometricPrecision" shape-rendering="geometricPrecision" transform="matrix(1,0,0,1,3917,2667)" stroke="gray">
      <rect x="-2402.9684" y="-1231.4228" clip-path="url(#clipPath2)" width="28.0469" rx="4" ry="4" height="29.6094" stroke="none"/>
      <rect stroke-linecap="butt" x="-2402.9684" y="-1231.4228" clip-path="url(#clipPath2)" fill="none" width="28.0469" rx="4" ry="4" height="29.6094" stroke-miterlimit="1.45"/>
      <rect x="-2433.9684" y="-1153.4228" clip-path="url(#clipPath2)" width="28.0469" rx="4" ry="4" height="29.6094" stroke="none"/>
      <rect stroke-linecap="butt" x="-2433.9684" y="-1153.4228" clip-path="url(#clipPath2)" fill="none" width="28.0469" rx="4" ry="4" height="29.6094" stroke-miterlimit="1.45"/>
      <rect x="-2625.9684" y="-1157.4228" clip-path="url(#clipPath2)" fill="rgb(255,204,0)" width="28.0469" rx="4" ry="4" height="29.6094" stroke="none"/>
    </g>
    <g stroke-linecap="butt" transform="matrix(1,0,0,1,3917,2667)" fill="rgb(255,204,0)" text-rendering="geometricPrecision" shape-rendering="geometricPrecision" stroke="rgb(255,204,0)" stroke-miterlimit="1.45">
      <rect x="-2625.9684" y="-1157.4228" clip-path="url(#clipPath2)" fill="none" width="28.0469" rx="4" ry="4" height="29.6094"/>
    </g>
    <g fill="green" text-rendering="geometricPrecision" shape-rendering="geometricPrecision" transform="matrix(1,0,0,1,3917,2667)" stroke="green">
      <rect x="-2565.4344" y="-1097.8134" clip-path="url(#clipPath2)" width="26.9789" rx="4" ry="4" height="29.6094" stroke="none"/>
      <rect stroke-linecap="butt" x="-2565.4344" y="-1097.8134" clip-path="url(#clipPath2)" fill="none" width="26.9789" rx="4" ry="4" height="29.6094" stroke-miterlimit="1.45"/>
      <rect x="-2492.0152" y="-1097.8134" clip-path="url(#clipPath2)" fill="rgb(255,204,0)" width="28.0469" rx="4" ry="4" height="29.6094" stroke="none"/>
    </g>
    <g stroke-linecap="butt" transform="matrix(1,0,0,1,3917,2667)" fill="rgb(255,204,0)" text-rendering="geometricPrecision" shape-rendering="geometricPrecision" stroke="rgb(255,204,0)" stroke-miterlimit="1.45">
      <rect x="-2492.0152" y="-1097.8134" clip-path="url(#clipPath2)" fill="none" width="28.0469" rx="4" ry="4" height="29.6094"/>
      <path fill="none" stroke-width="7" d="M-3767.906 -2401.47 L-3817.8728 -2530.9087" clip-path="url(#clipPath2)" stroke="teal"/>
      <path fill="none" stroke-width="7" d="M-3619.6045 -2391.2588 L-3483.6033 -2391.2588" clip-path="url(#clipPath2)" stroke="red"/>
      <path fill="none" stroke-width="7" d="M-3755.9453 -2398.4529 L-3705.1033 -2444.0647" clip-path="url(#clipPath2)" stroke="blue"/>
      <path fill="none" stroke-width="7" d="M-3689.0654 -2444.0647 L-3638.2234 -2398.4529" clip-path="url(#clipPath2)" stroke="blue"/>
      <path fill="none" stroke-width="7" d="M-3745.812 -2320.5239 L-3761.2366 -2380.6292" clip-path="url(#clipPath2)" stroke="blue"/>
      <path fill="none" stroke-width="7" d="M-3633.1738 -2380.6992 L-3650.115 -2320.4539" clip-path="url(#clipPath2)" stroke="blue"/>
      <path fill="none" stroke-width="7" d="M-3663.6843 -2309.8943 L-3732.4844 -2309.8943" clip-path="url(#clipPath2)" stroke="blue"/>
      <path fill="none" stroke-width="7" d="M-3750.5745 -2302.1108 L-3800.5659 -2250.1619" clip-path="url(#clipPath2)" stroke="black"/>
      <path fill="none" stroke-width="7" d="M-3770.3857 -2019.1055 L-3820.3525 -2148.5444" clip-path="url(#clipPath2)" stroke="teal"/>
      <path fill="none" stroke-width="7" d="M-3622.0842 -2008.8944 L-3486.083 -2008.8944" clip-path="url(#clipPath2)" stroke="green"/>
      <path fill="none" stroke-width="7" d="M-3758.425 -2016.0884 L-3707.583 -2061.7004" clip-path="url(#clipPath2)" stroke="blue"/>
      <path fill="none" stroke-width="7" d="M-3691.5452 -2061.7004 L-3640.7031 -2016.0884" clip-path="url(#clipPath2)" stroke="blue"/>
      <path fill="none" stroke-width="7" d="M-3748.2917 -1938.1595 L-3763.7163 -1998.2649" clip-path="url(#clipPath2)" stroke="blue"/>
      <path fill="none" stroke-width="7" d="M-3635.6536 -1998.3348 L-3652.5947 -1938.0896" clip-path="url(#clipPath2)" stroke="blue"/>
      <path fill="none" stroke-width="7" d="M-3666.1641 -1927.5299 L-3734.9639 -1927.5299" clip-path="url(#clipPath2)" stroke="blue"/>
      <path fill="none" stroke-width="7" d="M-3752.8604 -1919.5507 L-3799.155 -1868.9224" clip-path="url(#clipPath2)" stroke="black"/>
      <path fill="none" stroke-width="7" d="M-3767.906 -1636.7411 L-3817.8728 -1766.1799" clip-path="url(#clipPath2)" stroke="teal"/>
      <path fill="none" stroke-width="7" d="M-3619.6045 -1626.5299 L-3483.6033 -1626.5299" clip-path="url(#clipPath2)"/>
      <path fill="none" stroke-width="7" d="M-3755.9453 -1633.7239 L-3705.1033 -1679.3359" clip-path="url(#clipPath2)" stroke="blue"/>
      <path fill="none" stroke-width="7" d="M-3689.0654 -1679.3359 L-3638.2234 -1633.7239" clip-path="url(#clipPath2)" stroke="blue"/>
      <path fill="none" stroke-width="7" d="M-3745.812 -1555.795 L-3761.2366 -1615.9004" clip-path="url(#clipPath2)" stroke="blue"/>
      <path fill="none" stroke-width="7" d="M-3633.1738 -1615.9703 L-3650.115 -1555.7251" clip-path="url(#clipPath2)" stroke="blue"/>
      <path fill="none" stroke-width="7" d="M-3663.6843 -1545.1655 L-3732.4844 -1545.1655" clip-path="url(#clipPath2)" stroke="blue"/>
      <path fill="none" stroke-width="7" d="M-3750.5745 -1537.3821 L-3800.5659 -1485.433" clip-path="url(#clipPath2)" stroke="black"/>
      <path fill="none" stroke-width="7" d="M-3770.3857 -1254.3767 L-3820.3525 -1383.8156" clip-path="url(#clipPath2)" stroke="teal"/>
      <path fill="none" stroke-width="7" d="M-3622.0842 -1244.1655 L-3486.083 -1244.1655" clip-path="url(#clipPath2)" stroke="gray"/>
      <path fill="none" stroke-width="7" d="M-3758.425 -1251.3595 L-3707.583 -1296.9716" clip-path="url(#clipPath2)" stroke="blue"/>
      <path fill="none" stroke-width="7" d="M-3691.5452 -1296.9716 L-3640.7031 -1251.3595" clip-path="url(#clipPath2)" stroke="blue"/>
      <path fill="none" stroke-width="7" d="M-3748.2917 -1173.4307 L-3763.7163 -1233.536" clip-path="url(#clipPath2)" stroke="blue"/>
      <path fill="none" stroke-width="7" d="M-3635.6536 -1233.606 L-3652.5947 -1173.3607" clip-path="url(#clipPath2)" stroke="blue"/>
      <path fill="none" stroke-width="7" d="M-3666.1641 -1162.8011 L-3734.9639 -1162.8011" clip-path="url(#clipPath2)" stroke="blue"/>
      <path fill="none" stroke-width="6" d="M-2560.5916 -1640.1006 L-2560.905 -1598.0232" clip-path="url(#clipPath2)" stroke="rgb(51,51,51)"/>
      <path fill="none" stroke-width="6" d="M-2547 -1583.2197 L-2484.4817 -1583.2197" clip-path="url(#clipPath2)" stroke="rgb(51,51,51)"/>
      <path fill="none" stroke-width="6" d="M-2548.0212 -1431.501 L-2485.5298 -1431.501" clip-path="url(#clipPath2)" stroke="rgb(51,51,51)"/>
      <path fill="none" stroke-width="6" d="M-2470.4683 -1568.4165 L-2470.4683 -1528.6334" clip-path="url(#clipPath2)" stroke="rgb(51,51,51)"/>
      <path fill="none" stroke-width="6" d="M-2470.8533 -1499.0083 L-2472.2205 -1446.3011" clip-path="url(#clipPath2)" stroke="rgb(51,51,51)"/>
      <path fill="none" stroke-width="6" d="M-2561.0151 -1568.4165 L-2561.0151 -1528.6334" clip-path="url(#clipPath2)" stroke="rgb(51,51,51)"/>
      <path fill="none" stroke-width="6" d="M-2547 -1513.8447 L-2484.4817 -1513.8447" clip-path="url(#clipPath2)" stroke="rgb(51,51,51)"/>
      <path fill="none" stroke-width="6" d="M-2561.0151 -1499.0083 L-2561.0151 -1446.3011" clip-path="url(#clipPath2)" stroke="rgb(51,51,51)"/>
      <path fill="none" stroke-width="6" d="M-2561.0151 -1778.854 L-2561.0151 -1739.0709" clip-path="url(#clipPath2)" stroke="rgb(51,51,51)"/>
      <path fill="none" stroke-width="6" d="M-2560.9014 -1709.479 L-2560.595 -1669.6959" clip-path="url(#clipPath2)" stroke="rgb(51,51,51)"/>
      <path fill="none" stroke-width="6" d="M-2548.0212 -1793.6572 L-2485.5298 -1793.6572" clip-path="url(#clipPath2)" stroke="rgb(51,51,51)"/>
      <path fill="none" stroke-width="6" d="M-2548.0212 -1724.2822 L-2485.5298 -1724.2822" clip-path="url(#clipPath2)" stroke="rgb(51,51,51)"/>
      <path fill="none" stroke-width="6" d="M-2472.6042 -1778.854 L-2472.6042 -1739.0709" clip-path="url(#clipPath2)" stroke="rgb(51,51,51)"/>
      <path fill="none" stroke-width="6" d="M-2546.9651 -1654.9072 L-2485.5667 -1654.9072" clip-path="url(#clipPath2)" stroke="rgb(51,51,51)"/>
      <path fill="none" stroke-width="6" d="M-2472.6042 -1709.479 L-2472.6042 -1669.6959" clip-path="url(#clipPath2)" stroke="rgb(51,51,51)"/>
      <path fill="none" stroke-width="6" d="M-2472.1631 -1640.1006 L-2470.9094 -1598.0232" clip-path="url(#clipPath2)" stroke="rgb(51,51,51)"/>
      <path fill="none" stroke-width="6" d="M-2561.1147 -1416.7059 L-2561.4519 -1366.6182 L-2561.3862 -1363.9922" clip-path="url(#clipPath2)" stroke="rgb(51,51,51)"/>
      <path fill="none" stroke-width="6" d="M-2547 -1349.1572 L-2484.4817 -1349.1572" clip-path="url(#clipPath2)" stroke="rgb(51,51,51)"/>
      <path fill="none" stroke-width="6" d="M-2472.2195 -1416.6646 L-2470.8523 -1363.9574" clip-path="url(#clipPath2)" stroke="rgb(51,51,51)"/>
      <path fill="none" stroke-width="6" d="M-2573.126 -1334.9825 L-2599.7949 -1303.7683" clip-path="url(#clipPath2)" stroke="rgb(51,51,51)"/>
      <path fill="none" stroke-width="6" d="M-2457.4021 -1335.7393 L-2425.4895 -1302.9677" clip-path="url(#clipPath2)" stroke="rgb(51,51,51)"/>
      <path fill="none" stroke-width="6" d="M-2618.0239 -1274.7695 L-2635.8596 -1231.4115" clip-path="url(#clipPath2)" stroke="rgb(51,51,51)"/>
      <path fill="none" stroke-width="6" d="M-2407.6643 -1274.7695 L-2393.707 -1231.4115" clip-path="url(#clipPath2)" stroke="rgb(51,51,51)"/>
      <path fill="none" stroke-width="6" d="M-2394.833 -1201.8027 L-2414.0715 -1153.3961" clip-path="url(#clipPath2)" stroke="rgb(51,51,51)"/>
      <path fill="none" stroke-width="6" d="M-2635.9536 -1201.8398 L-2617.9353 -1157.3947" clip-path="url(#clipPath2)" stroke="rgb(51,51,51)"/>
      <path fill="none" stroke-width="6" d="M-2598.6733 -1129.4331 L-2564.8821 -1095.8616" clip-path="url(#clipPath2)" stroke="rgb(51,51,51)"/>
      <path fill="none" stroke-width="6" d="M-2538.439 -1082.8329 L-2521.9448 -1082.6182 L-2492.0276 -1082.884" clip-path="url(#clipPath2)" stroke="rgb(51,51,51)"/>
      <path fill="none" stroke-width="6" d="M-2464.5288 -1095.9065 L-2433.3767 -1125.7504" clip-path="url(#clipPath2)" stroke="rgb(51,51,51)"/>
    </g>
    <g stroke-linecap="butt" transform="matrix(1,0,0,1,3917,2667)" fill="rgb(51,51,51)" text-rendering="geometricPrecision" shape-rendering="geometricPrecision" stroke-dasharray="24,8" stroke="rgb(51,51,51)" stroke-width="4" stroke-miterlimit="1.45">
      <path fill="none" d="M-2472.9656 -1808.4668 L-2475.2593 -1902.4983" clip-path="url(#clipPath2)"/>
      <path fill="none" d="M-2474.166 -1910.7098 L-2446.7158 -2004.7894" clip-path="url(#clipPath2)"/>
      <path fill="none" d="M-2561.0151 -1808.4668 L-2561.0151 -1902.4982" clip-path="url(#clipPath2)"/>
      <path fill="none" d="M-2562.9744 -1910.2424 L-2614.3423 -2005.27" clip-path="url(#clipPath2)"/>
    </g>
  </g>
</svg>
